<?xml version="1.0" encoding="UTF-8"?><svg id="Layer_1" xmlns="http://www.w3.org/2000/svg" xmlns:xlink="http://www.w3.org/1999/xlink" viewBox="0 0 221.94 214.87"><defs><clipPath id="clippath"><path d="M190.13,108.82c.02,1.58,0,3.13-.08,4.68,0,.02,0,.04,0,.06,0,.07,0,.13-.01,.2-.02,.47-.06,.94-.09,1.4-.04,.51-.08,1.01-.13,1.53-.02,.25-.05,.51-.08,.76l-.09,.76c-.05,.44-.11,.88-.17,1.32-.06,.41-.11,.81-.18,1.22-.08,.5-.17,1.01-.26,1.51-.08,.44-.17,.88-.25,1.33,0,0,0,.01,0,.02-.08,.38-.16,.76-.24,1.13-.06,.27-.12,.53-.18,.8-.04,.18-.09,.38-.13,.56-.06,.28-.13,.55-.21,.83-.1,.39-.2,.78-.3,1.16-.03,.1-.05,.2-.08,.3-.09,.31-.17,.61-.26,.92-.29,1.03-.62,2.06-.96,3.07-.04,.11-.07,.21-.11,.31-.1,.3-.21,.6-.32,.9-.03,.08-.06,.16-.09,.24h0s0,.01,0,.02c-.09,.24-.17,.47-.26,.71-.18,.49-.37,.98-.57,1.47-.03,.07-.05,.13-.09,.2-.3,.75-.61,1.5-.95,2.24-.02,.04-.03,.08-.06,.13-.13,.27-.25,.54-.38,.81-.03,.08-.08,.17-.13,.26-.14,.32-.3,.64-.45,.96-.03,.05-.05,.11-.08,.16-.17,.34-.33,.68-.51,1.02-.57,1.1-1.17,2.2-1.8,3.29,11.99-20.98,8.45-45.81-7.11-62.86-1.6-1.76-3.33-3.43-5.18-5.01-.17-.14-.33-.28-.49-.41-.11-.1-.22-.18-.33-.27-.24-.2-.48-.4-.72-.59-.37-.3-.75-.59-1.12-.87-.33-.25-.67-.5-1-.73-.32-.24-.64-.47-.96-.69-.1-.08-.2-.15-.3-.21-1.15-.79-2.33-1.54-3.55-2.27-1.02-.59-2.06-1.17-3.14-1.72-.3-.15-.6-.3-.9-.45-.6-.3-1.2-.58-1.82-.86-.51-.23-1.02-.45-1.53-.67-2.69-1.14-5.44-2.08-8.21-2.83-.34-.1-.68-.18-1.02-.26-1.47-.37-2.95-.69-4.43-.95-.8-.15-1.6-.27-2.41-.38-.8-.11-1.59-.21-2.39-.29,3.63-6.65,11.06-11.25,19.7-11.37,2.46-.03,4.84,.3,7.07,.95,4.12,3.16,7.9,6.68,11.28,10.51,.01,.02,.02,.03,.04,.05,.06,.07,.13,.14,.2,.22,.06,.07,.13,.15,.19,.22,.12,.15,.25,.3,.37,.44,.17,.21,.35,.42,.52,.62,.02,.03,.05,.06,.07,.08,.01,.02,.02,.03,.03,.04,.02,.02,.03,.04,.06,.07,.3,.36,.59,.73,.88,1.1,.21,.24,.4,.5,.6,.75,.17,.22,.34,.44,.51,.67,.03,.04,.05,.07,.07,.11,.06,.07,.11,.15,.17,.22,.06,.07,.11,.15,.18,.23,.14,.2,.29,.4,.44,.6,.78,1.07,1.53,2.16,2.25,3.27,.33,.51,.65,1.03,.98,1.54,.08,.13,.16,.26,.24,.39,.02,.03,.03,.06,.05,.09l.1,.17c.28,.47,.56,.94,.82,1.4,.04,.07,.07,.14,.12,.21,.02,.04,.05,.07,.07,.12l.09,.16c.12,.21,.23,.41,.34,.61,0,0,0,0,0,0,.05,.1,.11,.21,.17,.31,.05,.1,.1,.2,.16,.3,.04,.07,.08,.15,.12,.23,.01,.01,.02,.02,.02,.03,.1,.2,.21,.4,.31,.61,.14,.26,.28,.53,.41,.8,.24,.48,.48,.97,.71,1.46,.1,.22,.21,.43,.3,.65,.1,.22,.2,.43,.3,.66,2.29,5.11,3.97,10.43,5,15.88,.1,.49,.18,.99,.26,1.49,0,.02,0,.05,.01,.07,.07,.42,.14,.84,.2,1.26,0,0,0,0,0,.01,0,.02,0,.04,0,.06,.01,.07,.02,.15,.03,.22,.06,.36,.1,.73,.15,1.1,.04,.33,.08,.67,.11,1,.02,.15,.03,.31,.05,.47,0,.04,.01,.08,.01,.12,.02,.2,.05,.4,.06,.6,.03,.29,.06,.56,.08,.85,.02,.29,.05,.57,.06,.85,0,.08,.01,.16,.01,.24,.03,.41,.05,.81,.07,1.22,0,.06,0,.12,0,.18,0,.15,.01,.3,.02,.44,.01,.15,.01,.3,.02,.44v.07c.01,.32,.02,.64,.02,.96Z" style="fill:none;"/></clipPath><clipPath id="clippath-1"><path d="M108.35,147.22c-.49,0-.98,0-1.47-.02,0,0-.02,0-.03,0-.49-.01-.97-.03-1.46-.05-.48-.02-.96-.05-1.45-.08-.48-.03-.96-.06-1.45-.12-.72-.06-1.44-.13-2.15-.22-.36-.04-.72-.09-1.07-.14-.45-.06-.89-.12-1.32-.19-.89-.14-1.76-.29-2.62-.46-.44-.08-.87-.17-1.3-.27-.01,0-.03,0-.05-.01-.85-.18-1.7-.39-2.55-.61-.09-.02-.17-.05-.26-.07-.77-.2-1.54-.42-2.3-.66-1.91-.57-3.78-1.24-5.59-1.98-.83-.34-1.65-.69-2.45-1.06-2.9-1.32-5.67-2.85-8.29-4.56-.75-.49-1.48-.99-2.21-1.51-.27-.19-.54-.39-.81-.59-.8-.6-1.59-1.21-2.36-1.84-.19-.16-.38-.31-.57-.47-.19-.16-.38-.32-.57-.48-.38-.32-.75-.65-1.11-.98-.74-.67-1.46-1.34-2.15-2.04-.7-.69-1.37-1.4-2.03-2.13-8.55-9.46-13.76-21.52-13.97-34.7,0-.28,0-.57,0-.85,0-.84,.02-1.68,.06-2.52,.02-.41,.05-.81,.08-1.22,.02-.33,.05-.67,.08-1,.04-.43,.08-.86,.13-1.28,.05-.45,.11-.89,.18-1.33,.24-1.67,.56-3.32,.97-4.93t0,0c2.65-10.73,8.68-20.31,17.05-27.75,10.94,1.23,19.48,9.74,19.65,20.16,.05,2.99-.6,5.85-1.81,8.43-.23,.21-.44,.42-.66,.63-.61,.61-1.22,1.23-1.82,1.86-.31,.34-.62,.68-.94,1.03-.61,.68-1.2,1.38-1.78,2.09-.28,.36-.57,.71-.85,1.08-.26,.34-.51,.68-.77,1.02-.21,.28-.42,.57-.63,.86-.17,.25-.35,.5-.52,.76-.11,.15-.21,.3-.31,.45,0,0,0,0,0,0-.11,.16-.22,.32-.32,.49-.05,.08-.11,.15-.15,.23-.12,.17-.23,.35-.34,.52-.04,.06-.08,.11-.11,.18,0,.02-.02,.04-.03,.05-.35,.54-.69,1.1-1.01,1.66-.01,.03-.03,.06-.05,.09-3.02,5.3-4.67,11.36-4.57,17.77,.33,20.27,18.17,36.51,40.07,36.73Z" style="fill:none;"/></clipPath><clipPath id="clippath-2"><path d="M152.36,122.73c-.03,.63-.07,1.25-.13,1.87-.04,.55-.09,1.09-.16,1.64-.03,.32-.08,.64-.13,.96-.06,.48-.13,.95-.21,1.44-.05,.3-.1,.6-.17,.9-.06,.36-.13,.72-.2,1.08-.07,.35-.16,.71-.23,1.07-.2,.87-.41,1.73-.65,2.6-.12,.43-.24,.85-.37,1.28-.13,.43-.27,.86-.41,1.28-.18,.56-.38,1.13-.59,1.68,0,0,0,0,0,0-.33,.89-.68,1.78-1.06,2.66-.17,.39-.34,.78-.53,1.16-.05,.11-.1,.23-.16,.35-.17,.37-.35,.73-.53,1.09-.14,.29-.28,.58-.44,.86-.14,.28-.3,.57-.45,.85-.16,.29-.31,.57-.47,.84-.19,.33-.37,.65-.57,.97-.38,.64-.78,1.28-1.19,1.91-.41,.63-.83,1.26-1.27,1.88-.44,.62-.9,1.23-1.36,1.82-.24,.31-.47,.6-.71,.9-.52,.65-1.07,1.29-1.62,1.92-.37,.41-.75,.83-1.14,1.24-4.11,4.38-9.02,8.23-14.7,11.34-.52,.29-1.05,.57-1.59,.85-.53,.27-1.07,.54-1.6,.79h0c-1.08,.51-2.17,1-3.25,1.44-.28,.12-.56,.23-.83,.33-.55,.22-1.09,.42-1.65,.62h0c-.55,.2-1.11,.39-1.67,.58-.83,.27-1.67,.53-2.51,.77h0c-25.84,7.36-54.84-2.05-70.02-24.15,.23,.34,.47,.68,.7,1.02,.21,.29,.41,.58,.61,.87-.61-.84-1.21-1.69-1.77-2.56-.13-.19-.26-.39-.38-.58-.07-.12-.15-.23-.22-.35-.18-.29-.37-.57-.54-.86-.2-.3-.37-.6-.56-.9-.01-.03-.03-.05-.04-.07-.21-.34-.41-.69-.61-1.04-.17-.3-.34-.59-.51-.88-.36-.66-.71-1.31-1.05-1.97-.12-.22-.24-.44-.34-.67-.15-.27-.28-.54-.41-.82-.03-.07-.07-.14-.1-.21-.17-.33-.32-.66-.48-.99h0c-.09-.2-.17-.38-.26-.57-.08-.18-.17-.37-.25-.55-.28-.61-.53-1.22-.79-1.83-.14-.33-.27-.66-.4-.99-.28-.69-.53-1.38-.79-2.08-.24-.68-.48-1.36-.7-2.05-.21-.64-.41-1.28-.6-1.93-.1-.34-.2-.68-.3-1.02-.1-.34-.19-.69-.28-1.04-.05-.14-.08-.29-.11-.44-.06-.25-.13-.5-.19-.76-.24-.98-.47-1.96-.66-2.95h0c-.01-.07-.03-.14-.04-.21-.02-.13-.05-.26-.07-.39-.01-.06-.02-.13-.03-.2-.04-.2-.07-.39-.11-.59,0-.02,0-.04-.01-.06-.06-.38-.13-.77-.2-1.16-.06-.41-.12-.81-.18-1.22-.05-.39-.11-.78-.16-1.17,0-.03,0-.06-.01-.08-.06-.55-.13-1.1-.18-1.65-.02-.22-.04-.44-.06-.67-.02-.19-.03-.37-.05-.55,0-.05,0-.11-.01-.17-.1-1.39-.17-2.8-.2-4.21-.02-1.11,0-2.21,.03-3.3,.02-.36,.03-.73,.05-1.09,0-.03,0-.06,0-.09,.01-.25,.02-.5,.04-.76,.02-.36,.03-.72,.06-1.09,0-.02,0-.03,0-.05,.02-.26,.03-.51,.06-.77,.02-.25,.05-.51,.07-.76v-.03c.03-.32,.06-.63,.1-.94,.02-.24,.05-.48,.08-.71,.02-.21,.05-.4,.07-.6,.01-.1,.03-.21,.04-.31,.02-.1,.03-.19,.05-.29,.06-.4,.11-.79,.18-1.19,.05-.35,.11-.7,.18-1.05,.27-1.53,.59-3.06,.96-4.57,.14-.54,.28-1.09,.43-1.63,.74-2.73,1.64-5.42,2.71-8.06,.01-.04,.03-.08,.05-.12,.03-.06,.06-.13,.08-.2,.1-.25,.2-.49,.3-.73,.15-.35,.3-.7,.45-1.05,.09-.2,.18-.4,.27-.6,.12-.27,.25-.53,.37-.8,.01-.02,.02-.04,.03-.06,.14-.31,.29-.61,.44-.92,.03-.05,.06-.11,.09-.16,.07-.14,.14-.29,.21-.43,.07-.15,.14-.29,.22-.44,.05-.09,.09-.18,.14-.27,.02-.03,.03-.05,.05-.08,0-.03,.03-.05,.04-.08,.07-.14,.15-.29,.22-.43,.02-.04,.05-.08,.07-.12,.1-.18,.2-.36,.29-.54,.59-1.09,1.2-2.17,1.86-3.25,.79-1.3,1.61-2.57,2.46-3.81,.01-.02,.03-.05,.05-.07,.02-.03,.03-.05,.05-.07,.05-.07,.09-.13,.14-.2,.2-.27,.39-.55,.58-.82,.09-.12,.18-.24,.26-.36,.04-.05,.07-.1,.11-.15,.2-.27,.4-.53,.6-.79,.23-.31,.47-.62,.71-.92,.24-.32,.48-.62,.74-.93,0,0,0-.01,.01-.02,.18-.23,.36-.45,.54-.67,.1-.12,.21-.24,.32-.36,.22-.26,.44-.52,.65-.78,.02-.02,.04-.04,.06-.06,3.6-4.18,7.69-8,12.18-11.39,.32-.24,.63-.48,.95-.71,1.3-.24,2.66-.38,4.04-.4,1.05-.01,2.09,.04,3.1,.16-8.36,7.44-14.41,17.02-17.05,27.75h0c-.4,1.62-.72,3.27-.97,4.94-.06,.44-.13,.89-.18,1.33-.02,.21-.05,.42-.07,.64-.02,.21-.05,.42-.06,.64-.03,.33-.06,.67-.08,1-.03,.41-.05,.81-.07,1.22-.04,.84-.06,1.68-.06,2.52,0,.28,0,.57,0,.85,.21,13.19,5.42,25.25,13.97,34.7,.66,.72,1.33,1.44,2.03,2.13,.7,.7,1.41,1.37,2.15,2.04,.36,.33,.73,.66,1.1,.98,.19,.16,.38,.32,.57,.48,.18,.16,.38,.32,.57,.48,.77,.63,1.56,1.25,2.36,1.83,.27,.2,.53,.39,.81,.59,.72,.52,1.46,1.02,2.21,1.51,2.62,1.7,5.39,3.23,8.29,4.55,.8,.37,1.63,.72,2.45,1.06,1.82,.74,3.68,1.41,5.59,1.98,.76,.24,1.52,.46,2.29,.66,.09,.02,.17,.05,.26,.07,.84,.22,1.69,.42,2.55,.61,.02,0,.03,0,.05,.01,.43,.1,.86,.18,1.3,.27,.87,.17,1.74,.33,2.62,.47,.44,.07,.88,.13,1.33,.19,.35,.05,.71,.1,1.07,.14,.71,.08,1.42,.16,2.15,.22,.48,.05,.96,.09,1.45,.12,.49,.03,.96,.06,1.45,.08,.49,.02,.98,.04,1.46,.05,.01,0,.02,0,.03,0,.48,.02,.96,.02,1.44,.02,.02,0,.05,0,.07,0,.68,0,1.38,0,2.07-.03,.03,0,.07,0,.11,0,.34-.01,.68-.03,1.03-.05,.38-.02,.76-.05,1.14-.09,.25-.02,.51-.05,.76-.07,.31-.03,.61-.07,.92-.11,.14-.02,.29-.04,.43-.06,.22-.03,.42-.06,.64-.09,.33-.05,.65-.11,.98-.16,.21-.03,.43-.07,.64-.12,.16-.03,.32-.06,.48-.09,.2-.04,.4-.08,.59-.13,.17-.03,.34-.07,.5-.11,.21-.05,.41-.1,.61-.15,.55-.13,1.09-.28,1.62-.43,.19-.05,.37-.11,.55-.16,.2-.06,.4-.12,.6-.18,.39-.12,.79-.26,1.18-.4,.2-.06,.39-.14,.59-.22,.19-.07,.39-.14,.58-.22,.39-.15,.78-.3,1.17-.47,.17-.07,.32-.14,.48-.21,.06-.02,.11-.04,.17-.07,.37-.16,.73-.32,1.09-.5,.32-.14,.62-.29,.92-.45,.26-.13,.52-.26,.78-.4,.19-.1,.37-.2,.56-.31,.2-.11,.4-.22,.6-.33,.2-.11,.4-.23,.6-.35,.19-.11,.38-.23,.57-.35,.19-.11,.37-.23,.55-.34,.49-.31,.96-.63,1.44-.96,.18-.13,.36-.26,.55-.39,.08-.06,.17-.13,.25-.19,.44-.32,.87-.65,1.29-.99,.21-.16,.41-.33,.61-.5,.4-.34,.8-.68,1.18-1.04,.2-.17,.39-.35,.57-.53,1.37-1.27,2.61-2.63,3.73-4.05,.16-.21,.32-.41,.48-.62,.32-.42,.63-.84,.92-1.27,.14-.21,.29-.43,.44-.64,.02-.04,.04-.08,.06-.11,.17-.25,.33-.5,.49-.76,.15-.23,.29-.47,.44-.7,.11-.2,.23-.4,.35-.61,.09-.15,.17-.3,.25-.46,.2-.36,.39-.72,.57-1.08,.18-.36,.36-.73,.53-1.1,.09-.18,.18-.36,.25-.55,1.01-2.24,1.76-4.59,2.27-7.03,.07-.34,.14-.68,.2-1.03,.03-.21,.07-.4,.1-.61,.03-.2,.06-.4,.09-.59,.04-.29,.07-.57,.11-.86,.03-.26,.06-.51,.08-.77,.03-.26,.05-.51,.06-.77,0-.09,.01-.18,.02-.27,.02-.24,.03-.48,.04-.72,0-.06,0-.13,0-.2,.02-.59,.02-1.19,.02-1.79,0-.15,0-.3-.01-.45,0-.11,0-.22-.01-.33,0-.06,0-.12,0-.18,0-.08,0-.16-.01-.24v-.04c-.02-.25-.03-.49-.05-.74-.01-.25-.03-.49-.06-.73h0c-.02-.21-.04-.41-.06-.62-.05-.48-.11-.95-.2-1.42-.02-.19-.06-.39-.09-.58-.1-.58-.21-1.16-.34-1.72-.04-.19-.09-.38-.13-.57-.04-.2-.09-.38-.14-.57-.02-.1-.05-.2-.09-.3-.05-.19-.1-.37-.16-.55-.03-.11-.06-.22-.09-.33-.1-.33-.2-.66-.32-.98-.1-.31-.2-.61-.32-.92-.05-.14-.1-.27-.14-.4-.08-.23-.17-.46-.27-.69-.07-.19-.15-.36-.22-.55-.23-.55-.48-1.09-.74-1.63-.09-.17-.18-.35-.27-.53-.18-.36-.37-.72-.56-1.07-.2-.36-.39-.71-.6-1.07,.29,.47,.57,.94,.84,1.41,.14,.24,.27,.47,.4,.71,.13,.24,.26,.48,.38,.71,.18,.34,.36,.68,.53,1.02,.28,.54,.55,1.09,.81,1.65,.13,.27,.25,.55,.38,.83,.24,.55,.48,1.11,.71,1.67,.23,.56,.45,1.12,.65,1.68,.21,.55,.4,1.1,.58,1.65,0,0,.02,.02,.02,.03,.18,.57,.36,1.13,.53,1.7t0,.01c.17,.58,.33,1.15,.48,1.74h0c.47,1.79,.83,3.59,1.1,5.39,.07,.51,.14,1.03,.21,1.54,.03,.26,.06,.52,.09,.78,.28,2.68,.36,5.38,.22,8.04Z" style="fill:none;"/></clipPath><clipPath id="clippath-3"><path d="M78.64,179.46l-28.91,6.41,15.88-12.51c-.38-.22-.78-.45-1.15-.68-.25-.15-.5-.3-.75-.45-.33-.2-.64-.4-.96-.61-.12-.07-.24-.15-.36-.23-.22-.14-.45-.28-.67-.43-.1-.06-.2-.13-.29-.2-.21-.14-.42-.28-.63-.42-.21-.14-.42-.28-.63-.43-.16-.11-.32-.22-.48-.33-.17-.12-.32-.23-.48-.34-.07-.05-.13-.1-.2-.14-.02-.02-.05-.04-.07-.05-.29-.21-.57-.42-.86-.62-.29-.21-.57-.43-.86-.64-.03-.02-.06-.04-.1-.07-.26-.2-.52-.39-.77-.59-.1-.07-.2-.16-.29-.23t-.01,0s-.05-.04-.06-.06c-.25-.2-.5-.4-.75-.6-.25-.2-.5-.4-.75-.6-.03-.03-.07-.05-.1-.08-.09-.07-.18-.15-.26-.23-.37-.31-.73-.61-1.09-.92-1.32-1.15-2.6-2.33-3.84-3.56-.28-.27-.56-.56-.83-.84-.46-.47-.91-.95-1.37-1.43-.24-.26-.48-.52-.72-.79-.11-.13-.23-.26-.35-.39-.09-.1-.17-.2-.26-.3-.02-.03-.05-.06-.08-.1-.09-.1-.18-.2-.26-.3-.25-.28-.48-.56-.72-.84-.2-.23-.4-.47-.59-.7-.05-.06-.11-.12-.16-.18-.01-.02-.02-.02-.03-.04-.1-.12-.2-.25-.3-.38-.25-.31-.5-.62-.75-.95-.23-.3-.47-.6-.69-.9-.02-.03-.03-.04-.05-.06,0,0,0-.01,0-.02-.03-.03-.06-.07-.09-.11-.22-.3-.45-.6-.67-.9-.01-.02-.02-.03-.03-.04-.03-.04-.07-.09-.1-.14-.2-.29-.41-.58-.61-.87-.24-.34-.47-.68-.7-1.02,15.18,22.1,44.18,31.51,70.02,24.15h0c.84-.24,1.68-.5,2.51-.77,.55-.19,1.11-.38,1.67-.58h0c.56-.2,1.1-.41,1.65-.62,.28-.11,.56-.22,.83-.33,1.09-.44,2.17-.93,3.25-1.44h0c.53-.26,1.07-.53,1.6-.8,.53-.27,1.06-.55,1.59-.85,5.68-3.11,10.6-6.97,14.7-11.34,.38-.41,.77-.82,1.14-1.24,.55-.63,1.1-1.27,1.62-1.92,.24-.3,.47-.59,.71-.9,.47-.6,.92-1.21,1.36-1.82,.44-.62,.86-1.24,1.27-1.88,.41-.63,.81-1.27,1.19-1.91,.2-.32,.38-.64,.57-.97,.16-.27,.31-.56,.47-.84,.15-.29,.3-.57,.45-.85,.16-.29,.29-.57,.44-.86,.18-.36,.36-.72,.53-1.09,.06-.12,.11-.24,.16-.35,.18-.39,.36-.78,.53-1.16,.38-.88,.74-1.77,1.06-2.66,0,0,0,0,0,0,.21-.56,.41-1.12,.59-1.68,.14-.43,.28-.86,.41-1.28,.13-.43,.25-.85,.37-1.28,.25-.87,.45-1.73,.65-2.6,.07-.35,.16-.71,.22-1.06,.07-.36,.14-.71,.2-1.08,.06-.3,.11-.6,.17-.9,.07-.49,.14-.96,.21-1.44,.05-.32,.09-.64,.13-.96,.06-.55,.11-1.09,.16-1.64,.06-.62,.1-1.24,.13-1.87,.13-2.66,.06-5.36-.22-8.04-.03-.26-.06-.52-.09-.78-.06-.51-.13-1.03-.21-1.54-.28-1.8-.64-3.59-1.1-5.38h0c-.15-.59-.31-1.16-.48-1.74t0-.01c-.17-.57-.34-1.13-.53-1.7,0-.01-.01-.03-.02-.03-.18-.56-.37-1.1-.58-1.65-.2-.56-.42-1.12-.65-1.68-.23-.56-.47-1.12-.71-1.67-.13-.27-.25-.55-.38-.83-.26-.55-.53-1.1-.81-1.65-.17-.34-.35-.68-.53-1.02-.13-.24-.25-.48-.38-.71-.13-.24-.26-.47-.4-.71-.3-.54-.62-1.08-.96-1.61-.02-.05-.05-.09-.08-.14-.02-.05-.05-.1-.09-.15,0,0,0-.01,0-.02,0-.01-.01-.02-.02-.03,0-.01-.01-.02-.02-.03-.32-.53-.67-1.07-1.03-1.59,0-.01-.02-.03-.03-.04,0,0,0,0-.01-.01-.24-.34-.48-.68-.72-1.01-.14-.2-.29-.39-.44-.58-.15-.19-.29-.38-.44-.57-.25-.31-.5-.6-.75-.9-.26-.3-.52-.59-.79-.88-.52-.58-1.06-1.15-1.64-1.7-.21-.21-.42-.4-.63-.6-.06-.06-.13-.12-.2-.18l-.13-.12c-.17-.15-.33-.31-.5-.44-.05-.05-.1-.09-.15-.13-.05-.04-.09-.08-.14-.12-.02-.02-.05-.04-.07-.06-.01-.01-.02-.02-.03-.03-.02-.02-.03-.03-.05-.04-.01-.01-.02-.03-.04-.03-.17-.15-.34-.29-.52-.43-.38-.31-.76-.62-1.16-.92-.2-.15-.4-.3-.6-.45-.17-.13-.33-.24-.51-.36-1.19-2.47-1.88-5.19-1.92-8.06-.05-3.44,.81-6.69,2.38-9.56,.8,.08,1.59,.18,2.39,.29,.8,.11,1.6,.23,2.41,.38,1.48,.26,2.96,.58,4.43,.95,.34,.08,.68,.17,1.02,.26,2.77,.75,5.52,1.69,8.21,2.83,.51,.21,1.02,.44,1.53,.67,.61,.28,1.22,.56,1.82,.86,.3,.15,.6,.3,.9,.45,1.07,.55,2.11,1.13,3.14,1.72,1.22,.72,2.4,1.48,3.55,2.27,.1,.06,.21,.13,.3,.21,.33,.22,.65,.45,.96,.69,.33,.23,.67,.48,1,.73,.37,.28,.75,.58,1.12,.87,.24,.2,.48,.39,.72,.59,.11,.08,.22,.17,.33,.27,.17,.13,.33,.27,.49,.41,1.85,1.58,3.58,3.25,5.18,5.01,15.55,17.05,19.09,41.87,7.11,62.86,.63-1.09,1.23-2.19,1.8-3.29-.3,.6-.61,1.19-.94,1.78s-.65,1.18-1,1.77c-.24,.42-.49,.84-.75,1.25-.17,.29-.34,.57-.52,.85-.44,.7-.88,1.39-1.36,2.07-.21,.31-.43,.62-.64,.93-.22,.31-.44,.62-.66,.92-.25,.35-.51,.71-.77,1.05-.02,.03-.04,.05-.06,.08-.14,.19-.29,.38-.43,.57-.12,.15-.24,.31-.36,.46-.26,.35-.55,.69-.82,1.03-.28,.33-.56,.67-.84,1.01-.42,.5-.84,.98-1.26,1.47-.15,.16-.3,.33-.44,.5l-.07,.08c-.36,.39-.71,.78-1.07,1.16-.05,.05-.1,.11-.16,.16-.36,.38-.72,.76-1.09,1.14-.08,.07-.16,.15-.22,.23-.4,.41-.81,.81-1.22,1.21-.41,.4-.83,.79-1.25,1.18-.03,.03-.06,.05-.1,.08-.45,.42-.9,.82-1.36,1.23-.02,0-.02,.02-.05,.03-.45,.4-.91,.8-1.38,1.19s-.95,.79-1.44,1.18c-.11,.09-.22,.18-.33,.27-.11,.08-.22,.17-.33,.26-.15,.12-.29,.23-.44,.34-.13,.09-.25,.19-.37,.29-.04,.03-.08,.06-.13,.09-.19,.15-.38,.29-.57,.43-.04,.04-.08,.07-.13,.1-.19,.15-.38,.29-.59,.44-.2,.15-.4,.29-.61,.44,0,0-.01,0-.02,.01-.05,.03-.09,.07-.14,.1-.18,.14-.37,.27-.55,.39-.24,.17-.47,.32-.7,.48-.53,.36-1.09,.72-1.63,1.08-1.64,1.07-3.35,2.08-5.11,3.05-.37,.2-.74,.4-1.12,.6-.29,.15-.57,.3-.87,.45-.05,.03-.09,.05-.14,.07-.26,.13-.52,.27-.79,.4,0,0,0,.01-.02,.01-.03,.02-.07,.04-.1,.05-.11,.05-.22,.11-.33,.16-.25,.12-.49,.24-.74,.36-.22,.1-.43,.2-.64,.3-.38,.18-.78,.36-1.16,.54-.73,.33-1.46,.65-2.2,.96-.31,.13-.62,.25-.94,.38-.4,.16-.79,.31-1.19,.47-.4,.15-.8,.31-1.2,.45-.38,.14-.75,.27-1.13,.41-.71,.25-1.43,.49-2.14,.72-.28,.08-.56,.17-.83,.26-.53,.17-1.06,.33-1.59,.48-.56,.16-1.11,.32-1.67,.47-.3,.08-.6,.16-.9,.24-.29,.07-.57,.15-.86,.22-.15,.04-.3,.08-.45,.11-.36,.08-.71,.17-1.07,.25-.34,.08-.69,.16-1.03,.23-.49,.11-.98,.21-1.47,.3-.22,.04-.44,.08-.66,.13h-.09c-.43,.1-.86,.17-1.29,.25-.57,.1-1.14,.2-1.72,.28-.48,.08-.96,.15-1.44,.21-.04,0-.09,.01-.13,.02-.1,.02-.19,.03-.29,.04-.43,.06-.86,.11-1.29,.16-.4,.05-.79,.09-1.18,.13-.05,0-.1,.01-.16,.02-.05,0-.09,.01-.14,.01-.16,.02-.3,.03-.45,.05-.16,.02-.32,.03-.48,.04-.09,.01-.18,.02-.26,.03-.06,0-.11,.01-.17,.01-.14,.02-.27,.03-.41,.04-.14,.01-.28,.02-.41,.03-.36,.03-.72,.05-1.08,.07-.1,0-.21,.01-.32,.02-.31,.02-.62,.04-.94,.05-1,.05-2,.08-3.03,.09-.96,.02-1.94,.02-2.9,0-.09,0-.18,0-.27,0-.52-.01-1.03-.03-1.55-.05-.25-.01-.51-.02-.77-.03-.29-.02-.57-.03-.86-.05h-.03c-.34-.02-.67-.04-1.01-.06-.12,0-.24-.01-.35-.03-.33-.02-.65-.05-.97-.07-.53-.04-1.05-.1-1.57-.15-.48-.04-.95-.1-1.43-.15-.03,0-.07-.01-.1-.01-.2-.03-.4-.05-.59-.07-.2-.03-.39-.05-.58-.08-5.9-.79-11.69-2.18-17.25-4.13-.37-.13-.75-.26-1.11-.4" style="fill:none;"/></clipPath><clipPath id="clippath-4"><rect x="99.03" y="33.46" width="18.65" height="81.8" rx="3.74" ry="3.74" style="fill:none;"/></clipPath></defs><path d="M196.71,109.99c0,44.51-39.21,80.6-87.59,80.6-13.38,0-26.06-2.76-37.41-7.7l-29.46,6.65,17.28-13.1c-22.95-14.53-37.99-38.87-37.99-66.44,0-44.51,39.21-80.6,87.59-80.6s87.59,36.09,87.59,80.6Z"/><g style="clip-path:url(#clippath);"><polygon points="178.21 145.1 150.2 101.84 185.73 78.84 192.58 89.42 192.58 145.1 178.21 145.1" style="fill:#f3ea1a;"/><rect x="146.61" y="89.68" width="42.32" height=".72" transform="translate(-21.99 105.66) rotate(-32.93)" style="fill:#f3ea1a;"/><rect x="146.22" y="89.08" width="42.32" height=".72" transform="translate(-21.73 105.35) rotate(-32.93)" style="fill:#f3e81a;"/><rect x="145.83" y="88.47" width="42.32" height=".72" transform="translate(-21.46 105.04) rotate(-32.93)" style="fill:#f3e61a;"/><rect x="145.44" y="87.87" width="42.32" height=".72" transform="translate(-21.2 104.73) rotate(-32.93)" style="fill:#f3e41a;"/><rect x="145.05" y="87.27" width="42.32" height=".72" transform="translate(-20.93 104.42) rotate(-32.93)" style="fill:#f4e31a;"/><rect x="144.66" y="86.67" width="42.32" height=".72" transform="translate(-20.67 104.12) rotate(-32.93)" style="fill:#f4e21a;"/><rect x="144.27" y="86.07" width="42.32" height=".72" transform="translate(-20.4 103.81) rotate(-32.93)" style="fill:#f4e019;"/><rect x="143.88" y="85.46" width="42.32" height=".72" transform="translate(-20.14 103.5) rotate(-32.93)" style="fill:#f4df19;"/><rect x="143.49" y="84.86" width="42.32" height=".72" transform="translate(-19.87 103.19) rotate(-32.93)" style="fill:#f4de19;"/><rect x="143.1" y="84.26" width="42.32" height=".72" transform="translate(-19.61 102.88) rotate(-32.93)" style="fill:#f5dd19;"/><rect x="142.71" y="83.66" width="42.32" height=".72" transform="translate(-19.35 102.57) rotate(-32.93)" style="fill:#f5dc18;"/><rect x="142.32" y="83.06" width="42.32" height=".72" transform="translate(-19.08 102.26) rotate(-32.93)" style="fill:#f5db18;"/><rect x="141.93" y="82.45" width="42.32" height=".72" transform="translate(-18.82 101.96) rotate(-32.93)" style="fill:#f5da18;"/><rect x="141.54" y="81.85" width="42.32" height=".72" transform="translate(-18.55 101.65) rotate(-32.93)" style="fill:#f5d918;"/><rect x="141.15" y="81.25" width="42.32" height=".72" transform="translate(-18.29 101.34) rotate(-32.93)" style="fill:#f5d818;"/><rect x="140.76" y="80.65" width="42.32" height=".72" transform="translate(-18.02 101.03) rotate(-32.93)" style="fill:#f6d718;"/><rect x="140.37" y="80.05" width="42.32" height=".72" transform="translate(-17.76 100.72) rotate(-32.93)" style="fill:#f6d618;"/><rect x="139.98" y="79.44" width="42.32" height=".72" transform="translate(-17.49 100.41) rotate(-32.93)" style="fill:#f6d517;"/><rect x="139.59" y="78.84" width="42.32" height=".72" transform="translate(-17.23 100.1) rotate(-32.93)" style="fill:#f6d417;"/><rect x="139.2" y="78.24" width="42.32" height=".72" transform="translate(-16.96 99.8) rotate(-32.93)" style="fill:#f6d317;"/><rect x="138.81" y="77.64" width="42.32" height=".72" transform="translate(-16.7 99.49) rotate(-32.93)" style="fill:#f6d217;"/><rect x="138.42" y="77.04" width="42.32" height=".72" transform="translate(-16.44 99.18) rotate(-32.93)" style="fill:#f7d117;"/><rect x="138.03" y="76.43" width="42.32" height=".72" transform="translate(-16.17 98.87) rotate(-32.93)" style="fill:#f7d017;"/><rect x="137.64" y="75.83" width="42.32" height=".72" transform="translate(-15.91 98.56) rotate(-32.93)" style="fill:#f7cf17;"/><rect x="137.25" y="75.23" width="42.32" height=".72" transform="translate(-15.64 98.25) rotate(-32.93)" style="fill:#f7ce17;"/><rect x="136.86" y="74.63" width="42.32" height=".72" transform="translate(-15.38 97.94) rotate(-32.93)" style="fill:#f7cd17;"/><rect x="136.47" y="74.03" width="42.32" height=".72" transform="translate(-15.11 97.63) rotate(-32.93)" style="fill:#f7cc17;"/><rect x="136.08" y="73.42" width="42.32" height=".72" transform="translate(-14.85 97.33) rotate(-32.93)" style="fill:#f8cb16;"/><rect x="135.69" y="72.82" width="42.32" height=".72" transform="translate(-14.58 97.02) rotate(-32.93)" style="fill:#f8cb16;"/><rect x="135.3" y="72.22" width="42.32" height=".72" transform="translate(-14.32 96.71) rotate(-32.93)" style="fill:#f8ca16;"/><rect x="134.91" y="71.62" width="42.32" height=".72" transform="translate(-14.05 96.4) rotate(-32.93)" style="fill:#f8c916;"/><rect x="134.52" y="71.02" width="42.32" height=".72" transform="translate(-13.79 96.09) rotate(-32.93)" style="fill:#f8c816;"/><rect x="134.13" y="70.42" width="42.32" height=".72" transform="translate(-13.52 95.78) rotate(-32.93)" style="fill:#f8c716;"/><rect x="133.74" y="69.81" width="42.32" height=".72" transform="translate(-13.26 95.47) rotate(-32.93)" style="fill:#f8c716;"/><rect x="133.35" y="69.21" width="42.32" height=".72" transform="translate(-13 95.17) rotate(-32.93)" style="fill:#f9c616;"/><rect x="132.96" y="68.61" width="42.32" height=".72" transform="translate(-12.73 94.86) rotate(-32.93)" style="fill:#f9c516;"/><rect x="132.57" y="68.01" width="42.32" height=".72" transform="translate(-12.47 94.55) rotate(-32.93)" style="fill:#f9c516;"/><rect x="132.18" y="67.41" width="42.32" height=".72" transform="translate(-12.2 94.24) rotate(-32.93)" style="fill:#f9c416;"/><rect x="131.79" y="66.8" width="42.32" height=".72" transform="translate(-11.94 93.93) rotate(-32.93)" style="fill:#f9c316;"/><rect x="131.4" y="66.2" width="42.32" height=".72" transform="translate(-11.67 93.62) rotate(-32.93)" style="fill:#f9c316;"/><rect x="131.01" y="65.6" width="42.32" height=".72" transform="translate(-11.41 93.31) rotate(-32.93)" style="fill:#f9c216;"/><polygon points="134.22 77.16 133.98 76.8 133.98 76.46 169.35 53.55 169.74 54.15 134.22 77.16" style="fill:#f9c116;"/><polygon points="133.98 75.6 168.96 52.95 169.35 53.55 133.98 76.46 133.98 75.6" style="fill:#fac116;"/><polygon points="133.98 74.75 168.57 52.35 168.96 52.95 133.98 75.6 133.98 74.75" style="fill:#fac016;"/><polygon points="133.98 73.89 168.18 51.75 168.57 52.35 133.98 74.75 133.98 73.89" style="fill:#fac016;"/><polygon points="133.98 73.04 167.44 51.37 167.94 51.37 168.18 51.75 133.98 73.89 133.98 73.04" style="fill:#fabf16;"/><polygon points="133.98 72.18 166.12 51.37 167.44 51.37 133.98 73.04 133.98 72.18" style="fill:#fabf16;"/><polygon points="133.98 71.33 164.8 51.37 166.12 51.37 133.98 72.18 133.98 71.33" style="fill:#fabe15;"/><polygon points="133.98 70.47 163.48 51.37 164.8 51.37 133.98 71.33 133.98 70.47" style="fill:#fabe15;"/><polygon points="133.98 69.62 162.16 51.37 163.48 51.37 133.98 70.47 133.98 69.62" style="fill:#fbbd15;"/><polygon points="133.98 68.77 160.84 51.37 162.16 51.37 133.98 69.62 133.98 68.77" style="fill:#fbbd15;"/><polygon points="133.98 67.91 159.52 51.37 160.84 51.37 133.98 68.77 133.98 67.91" style="fill:#fbbc15;"/><polygon points="133.98 67.06 158.2 51.37 159.52 51.37 133.98 67.91 133.98 67.06" style="fill:#fbbc15;"/><polygon points="133.98 66.2 156.88 51.37 158.2 51.37 133.98 67.06 133.98 66.2" style="fill:#fbbb15;"/><polygon points="133.98 65.35 155.56 51.37 156.88 51.37 133.98 66.2 133.98 65.35" style="fill:#fbbb15;"/><polygon points="133.98 64.49 154.24 51.37 155.56 51.37 133.98 65.35 133.98 64.49" style="fill:#fbbb15;"/><polygon points="133.98 63.64 152.93 51.37 154.24 51.37 133.98 64.49 133.98 63.64" style="fill:#fbba15;"/><polygon points="133.98 62.78 151.61 51.37 152.93 51.37 133.98 63.64 133.98 62.78" style="fill:#fcba15;"/><polygon points="133.98 61.93 150.29 51.37 151.61 51.37 133.98 62.78 133.98 61.93" style="fill:#fcba15;"/><polygon points="133.98 61.08 148.97 51.37 150.29 51.37 133.98 61.93 133.98 61.08" style="fill:#fcb915;"/><polygon points="133.98 60.22 147.65 51.37 148.97 51.37 133.98 61.08 133.98 60.22" style="fill:#fcb915;"/><polygon points="133.98 59.37 146.33 51.37 147.65 51.37 133.98 60.22 133.98 59.37" style="fill:#fcb914;"/><polygon points="133.98 58.51 145.01 51.37 146.33 51.37 133.98 59.37 133.98 58.51" style="fill:#fcb914;"/><polygon points="133.98 57.66 143.69 51.37 145.01 51.37 133.98 58.51 133.98 57.66" style="fill:#fcb814;"/><polygon points="133.98 56.8 142.37 51.37 143.69 51.37 133.98 57.66 133.98 56.8" style="fill:#fcb814;"/><polygon points="133.98 55.95 141.05 51.37 142.37 51.37 133.98 56.8 133.98 55.95" style="fill:#fcb814;"/><polygon points="133.98 55.09 139.73 51.37 141.05 51.37 133.98 55.95 133.98 55.09" style="fill:#fcb814;"/><polygon points="133.98 54.24 138.41 51.37 139.73 51.37 133.98 55.09 133.98 54.24" style="fill:#fdb814;"/><polygon points="133.98 53.39 137.09 51.37 138.41 51.37 133.98 54.24 133.98 53.39" style="fill:#fdb714;"/><polygon points="133.98 52.53 135.77 51.37 137.09 51.37 133.98 53.39 133.98 52.53" style="fill:#fdb714;"/><polygon points="133.98 51.68 134.45 51.37 135.77 51.37 133.98 52.53 133.98 51.68" style="fill:#fdb714;"/><polygon points="134.45 51.37 133.98 51.68 133.98 51.37 134.45 51.37" style="fill:#fdb714;"/></g><g style="clip-path:url(#clippath-1);"><polygon points="46.75 128.42 108.35 130.77 108.35 147.22 46.75 147.22 46.75 128.42" style="fill:#f3ea1a;"/><polygon points="46.75 127.49 108.35 129.84 108.35 130.77 46.75 128.42 46.75 127.49" style="fill:#f3ea1a;"/><polygon points="46.75 126.57 108.35 128.92 108.35 129.84 46.75 127.49 46.75 126.57" style="fill:#f3e61a;"/><polygon points="46.75 125.64 108.35 127.99 108.35 128.92 46.75 126.57 46.75 125.64" style="fill:#f3e31a;"/><polygon points="46.75 124.72 108.35 127.07 108.35 127.99 46.75 125.64 46.75 124.72" style="fill:#f4e11a;"/><polygon points="46.75 123.79 108.35 126.14 108.35 127.07 46.75 124.72 46.75 123.79" style="fill:#f4de19;"/><polygon points="46.75 122.87 108.35 125.22 108.35 126.14 46.75 123.79 46.75 122.87" style="fill:#f4dc19;"/><polygon points="46.75 121.94 108.35 124.29 108.35 125.22 46.75 122.87 46.75 121.94" style="fill:#f5da18;"/><polygon points="46.75 121.02 108.35 123.37 108.35 124.29 46.75 121.94 46.75 121.02" style="fill:#f5d818;"/><polygon points="46.75 120.09 108.35 122.44 108.35 123.37 46.75 121.02 46.75 120.09" style="fill:#f5d618;"/><polygon points="46.75 119.17 108.35 121.52 108.35 122.44 46.75 120.09 46.75 119.17" style="fill:#f6d518;"/><polygon points="46.75 118.24 108.35 120.59 108.35 121.52 46.75 119.17 46.75 118.24" style="fill:#f6d318;"/><polygon points="46.75 117.32 108.35 119.67 108.35 120.59 46.75 118.24 46.75 117.32" style="fill:#f6d117;"/><polygon points="46.75 116.39 108.35 118.74 108.35 119.67 46.75 117.32 46.75 116.39" style="fill:#f6d017;"/><polygon points="46.75 115.47 108.35 117.82 108.35 118.74 46.75 116.39 46.75 115.47" style="fill:#f7ce17;"/><polygon points="46.75 114.54 108.35 116.89 108.35 117.82 46.75 115.47 46.75 114.54" style="fill:#f7cd17;"/><polygon points="46.75 113.62 108.35 115.97 108.35 116.89 46.75 114.54 46.75 113.62" style="fill:#f7cb17;"/><polygon points="46.75 112.69 108.35 115.04 108.35 115.97 46.75 113.62 46.75 112.69" style="fill:#f7ca17;"/><polygon points="46.75 111.77 108.35 114.12 108.35 115.04 46.75 112.69 46.75 111.77" style="fill:#f7c917;"/><polygon points="46.75 110.84 108.35 113.19 108.35 114.12 46.75 111.77 46.75 110.84" style="fill:#f8c717;"/><polygon points="46.75 109.92 108.35 112.27 108.35 113.19 46.75 110.84 46.75 109.92" style="fill:#f8c617;"/><polygon points="46.75 108.99 108.35 111.34 108.35 112.27 46.75 109.92 46.75 108.99" style="fill:#f8c517;"/><polygon points="46.75 108.07 108.35 110.42 108.35 111.34 46.75 108.99 46.75 108.07" style="fill:#f8c417;"/><polygon points="46.75 107.14 108.35 109.49 108.35 110.42 46.75 108.07 46.75 107.14" style="fill:#f8c317;"/><polygon points="46.75 106.22 108.35 108.57 108.35 109.49 46.75 107.14 46.75 106.22" style="fill:#f8c217;"/><polygon points="46.75 105.29 108.35 107.64 108.35 108.57 46.75 106.22 46.75 105.29" style="fill:#f8c117;"/><polygon points="46.75 104.37 108.35 106.72 108.35 107.64 46.75 105.29 46.75 104.37" style="fill:#f9c117;"/><polygon points="46.75 103.44 108.35 105.79 108.35 106.72 46.75 104.37 46.75 103.44" style="fill:#f9c017;"/><polygon points="46.75 102.52 108.35 104.87 108.35 105.79 46.75 103.44 46.75 102.52" style="fill:#f9bf17;"/><polygon points="46.75 101.59 108.35 103.94 108.35 104.87 46.75 102.52 46.75 101.59" style="fill:#f9be16;"/><polygon points="46.75 100.67 108.35 103.02 108.35 103.94 46.75 101.59 46.75 100.67" style="fill:#f9be16;"/><polygon points="46.75 99.74 108.35 102.09 108.35 103.02 46.75 100.67 46.75 99.74" style="fill:#f9bd16;"/><polygon points="46.75 98.82 108.35 101.17 108.35 102.09 46.75 99.74 46.75 98.82" style="fill:#f9bc16;"/><polygon points="46.75 97.89 108.35 100.24 108.35 101.17 46.75 98.82 46.75 97.89" style="fill:#fabc16;"/><polygon points="46.75 96.97 108.35 99.32 108.35 100.24 46.75 97.89 46.75 96.97" style="fill:#fabb16;"/><polygon points="46.75 96.04 108.35 98.39 108.35 99.32 46.75 96.97 46.75 96.04" style="fill:#fabb16;"/><polygon points="46.75 95.12 108.35 97.47 108.35 98.39 46.75 96.04 46.75 95.12" style="fill:#faba16;"/><polygon points="46.75 94.19 108.35 96.54 108.35 97.47 46.75 95.12 46.75 94.19" style="fill:#faba16;"/><polygon points="46.75 93.27 108.35 95.62 108.35 96.54 46.75 94.19 46.75 93.27" style="fill:#faba16;"/><polygon points="46.75 92.34 108.35 94.69 108.35 95.62 46.75 93.27 46.75 92.34" style="fill:#fab916;"/><polygon points="46.75 91.42 108.35 93.77 108.35 94.69 46.75 92.34 46.75 91.42" style="fill:#fab916;"/><polygon points="46.75 90.49 108.35 92.84 108.35 93.77 46.75 91.42 46.75 90.49" style="fill:#fab916;"/><polygon points="46.75 89.57 108.35 91.92 108.35 92.84 46.75 90.49 46.75 89.57" style="fill:#fbb816;"/><polygon points="46.75 88.64 108.35 90.99 108.35 91.92 46.75 89.57 46.75 88.64" style="fill:#fbb816;"/><polygon points="46.75 87.72 108.35 90.07 108.35 90.99 46.75 88.64 46.75 87.72" style="fill:#fbb816;"/><polygon points="46.75 86.79 108.35 89.14 108.35 90.07 46.75 87.72 46.75 86.79" style="fill:#fbb816;"/><polygon points="46.75 85.87 108.35 88.22 108.35 89.14 46.75 86.79 46.75 85.87" style="fill:#fbb716;"/><polygon points="46.75 84.94 108.35 87.29 108.35 88.22 46.75 85.87 46.75 84.94" style="fill:#fbb716;"/><polygon points="46.75 84.02 108.35 86.37 108.35 87.29 46.75 84.94 46.75 84.02" style="fill:#fbb716;"/><polygon points="46.75 83.09 108.35 85.44 108.35 86.37 46.75 84.02 46.75 83.09" style="fill:#fbb716;"/><polygon points="46.75 82.17 108.35 84.52 108.35 85.44 46.75 83.09 46.75 82.17" style="fill:#fbb716;"/><polygon points="46.75 81.24 108.35 83.59 108.35 84.52 46.75 82.17 46.75 81.24" style="fill:#fbb716;"/><polygon points="46.75 80.32 108.35 82.67 108.35 83.59 46.75 81.24 46.75 80.32" style="fill:#fbb616;"/><polygon points="46.75 79.39 108.35 81.74 108.35 82.67 46.75 80.32 46.75 79.39" style="fill:#fbb615;"/><polygon points="46.75 78.47 108.35 80.82 108.35 81.74 46.75 79.39 46.75 78.47" style="fill:#fbb615;"/><polygon points="46.75 77.54 108.35 79.89 108.35 80.82 46.75 78.47 46.75 77.54" style="fill:#fbb615;"/><polygon points="46.75 76.62 108.35 78.97 108.35 79.89 46.75 77.54 46.75 76.62" style="fill:#fbb615;"/><polygon points="46.75 75.7 108.35 78.04 108.35 78.97 46.75 76.62 46.75 75.7" style="fill:#fbb615;"/><polygon points="46.75 74.77 108.35 77.12 108.35 78.04 46.75 75.7 46.75 74.77" style="fill:#fbb615;"/><polygon points="46.75 73.85 108.35 76.19 108.35 77.12 46.75 74.77 46.75 73.85" style="fill:#fbb615;"/><polygon points="46.75 72.92 108.35 75.27 108.35 76.19 46.75 73.85 46.75 72.92" style="fill:#fbb615;"/><polygon points="46.75 72 108.35 74.34 108.35 75.27 46.75 72.92 46.75 72" style="fill:#fbb615;"/><polygon points="46.75 71.07 108.35 73.42 108.35 74.34 46.75 72 46.75 71.07" style="fill:#fbb615;"/><polygon points="46.75 70.15 108.35 72.49 108.35 73.42 46.75 71.07 46.75 70.15" style="fill:#fbb615;"/><polygon points="46.75 69.22 108.35 71.57 108.35 72.49 46.75 70.15 46.75 69.22" style="fill:#fbb615;"/><polygon points="46.75 68.3 108.35 70.64 108.35 71.57 46.75 69.22 46.75 68.3" style="fill:#fbb615;"/><polygon points="46.75 67.37 108.35 69.72 108.35 70.64 46.75 68.3 46.75 67.37" style="fill:#fbb615;"/><polygon points="46.75 66.45 108.35 68.79 108.35 69.72 46.75 67.37 46.75 66.45" style="fill:#fbb615;"/><polygon points="46.75 65.52 108.35 67.87 108.35 68.79 46.75 66.45 46.75 65.52" style="fill:#fbb615;"/><polygon points="46.75 64.6 108.35 66.94 108.35 67.87 46.75 65.52 46.75 64.6" style="fill:#fbb615;"/><polygon points="46.75 63.67 108.35 66.02 108.35 66.94 46.75 64.6 46.75 63.67" style="fill:#fbb615;"/><polygon points="46.75 62.75 108.35 65.09 108.35 66.02 46.75 63.67 46.75 62.75" style="fill:#fbb615;"/><polygon points="46.75 61.82 108.35 64.17 108.35 65.09 46.75 62.75 46.75 61.82" style="fill:#fbb615;"/><polygon points="46.75 60.9 108.35 63.24 108.35 64.17 46.75 61.82 46.75 60.9" style="fill:#fbb615;"/><polygon points="46.75 59.97 108.35 62.32 108.35 63.24 46.75 60.9 46.75 59.97" style="fill:#fbb615;"/><polygon points="46.75 59.05 108.35 61.4 108.35 62.32 46.75 59.97 46.75 59.05" style="fill:#fbb615;"/><polygon points="46.75 58.12 108.35 60.47 108.35 61.4 46.75 59.05 46.75 58.12" style="fill:#fbb615;"/><polygon points="46.75 57.2 108.35 59.55 108.35 60.47 46.75 58.12 46.75 57.2" style="fill:#fbb615;"/><polygon points="46.75 56.27 108.35 58.62 108.35 59.55 46.75 57.2 46.75 56.27" style="fill:#fbb615;"/><polygon points="46.75 55.35 108.35 57.7 108.35 58.62 46.75 56.27 46.75 55.35" style="fill:#fbb615;"/><polygon points="46.75 54.42 108.35 56.77 108.35 57.7 46.75 55.35 46.75 54.42" style="fill:#fbb615;"/><polygon points="108.35 56.77 46.75 54.42 46.75 51.11 108.35 51.11 108.35 56.77" style="fill:#fbb615;"/></g><g style="clip-path:url(#clippath-2);"><polygon points="88.46 50.94 27.45 103.13 27.45 50.94 88.46 50.94" style="fill:#f3ea1a;"/><polygon points="90.87 50.94 27.45 105.18 27.45 103.13 88.46 50.94 90.87 50.94" style="fill:#f3ea1a;"/><polygon points="93.27 50.94 27.45 107.24 27.45 105.18 90.87 50.94 93.27 50.94" style="fill:#f3e51a;"/><polygon points="95.67 50.94 27.45 109.29 27.45 107.24 93.27 50.94 95.67 50.94" style="fill:#f4e21a;"/><polygon points="98.08 50.94 27.45 111.35 27.45 109.29 95.67 50.94 98.08 50.94" style="fill:#f4df19;"/><polygon points="100.48 50.94 27.45 113.4 27.45 111.35 98.08 50.94 100.48 50.94" style="fill:#f4dd19;"/><polygon points="102.88 50.94 27.45 115.46 27.45 113.4 100.48 50.94 102.88 50.94" style="fill:#f5da18;"/><polygon points="105.29 50.94 27.45 117.51 27.45 115.46 102.88 50.94 105.29 50.94" style="fill:#f5d818;"/><polygon points="107.69 50.94 27.45 119.57 27.45 117.51 105.29 50.94 107.69 50.94" style="fill:#f5d618;"/><polygon points="110.09 50.94 27.45 121.62 27.45 119.57 107.69 50.94 110.09 50.94" style="fill:#f6d418;"/><polygon points="111.79 50.94 112.09 51.29 27.45 123.68 27.45 121.62 110.09 50.94 111.79 50.94" style="fill:#f6d218;"/><polygon points="112.09 51.29 113.11 52.48 27.45 125.74 27.45 123.68 112.09 51.29" style="fill:#f6d017;"/><polygon points="113.11 52.48 114.12 53.67 27.45 127.79 27.45 125.74 113.11 52.48" style="fill:#f7ce17;"/><polygon points="114.12 53.67 115.14 54.85 27.45 129.85 27.45 127.79 114.12 53.67" style="fill:#f7cc17;"/><polygon points="115.14 54.85 116.15 56.04 27.45 131.9 27.45 129.85 115.14 54.85" style="fill:#f7cb17;"/><polygon points="116.15 56.04 117.17 57.23 27.45 133.96 27.45 131.9 116.15 56.04" style="fill:#f7c917;"/><polygon points="117.17 57.23 118.18 58.42 27.45 136.01 27.45 133.96 117.17 57.23" style="fill:#f7c817;"/><polygon points="118.18 58.42 119.2 59.6 27.45 138.07 27.45 136.01 118.18 58.42" style="fill:#f8c617;"/><polygon points="119.2 59.6 120.21 60.79 27.45 140.12 27.45 138.07 119.2 59.6" style="fill:#f8c517;"/><polygon points="120.21 60.79 121.23 61.98 27.45 142.18 27.45 140.12 120.21 60.79" style="fill:#f8c417;"/><polygon points="121.23 61.98 122.24 63.16 28.28 143.53 27.45 142.56 27.45 142.18 121.23 61.98" style="fill:#f8c317;"/><rect x="13.95" y="103.16" width="123.64" height="1.56" transform="translate(-49.37 74.2) rotate(-40.54)" style="fill:#f8c217;"/><rect x="14.96" y="104.35" width="123.64" height="1.56" transform="translate(-49.9 75.14) rotate(-40.54)" style="fill:#f9c117;"/><rect x="15.98" y="105.53" width="123.64" height="1.56" transform="translate(-50.43 76.08) rotate(-40.54)" style="fill:#f9c017;"/><rect x="16.99" y="106.72" width="123.64" height="1.56" transform="translate(-50.95 77.03) rotate(-40.54)" style="fill:#f9bf17;"/><rect x="18.01" y="107.91" width="123.64" height="1.56" transform="translate(-51.48 77.97) rotate(-40.54)" style="fill:#f9be16;"/><rect x="19.02" y="109.09" width="123.64" height="1.56" transform="translate(-52.01 78.92) rotate(-40.54)" style="fill:#f9bd16;"/><rect x="20.04" y="110.28" width="123.64" height="1.56" transform="translate(-52.54 79.86) rotate(-40.54)" style="fill:#f9bd16;"/><rect x="21.05" y="111.47" width="123.64" height="1.56" transform="translate(-53.06 80.81) rotate(-40.54)" style="fill:#fabc16;"/><rect x="22.07" y="112.66" width="123.64" height="1.56" transform="translate(-53.59 81.75) rotate(-40.54)" style="fill:#fabc16;"/><rect x="23.08" y="113.84" width="123.64" height="1.56" transform="translate(-54.12 82.7) rotate(-40.54)" style="fill:#fabb16;"/><rect x="24.1" y="115.03" width="123.64" height="1.56" transform="translate(-54.65 83.64) rotate(-40.54)" style="fill:#fabb16;"/><rect x="25.12" y="116.22" width="123.64" height="1.56" transform="translate(-55.18 84.59) rotate(-40.54)" style="fill:#faba16;"/><rect x="26.13" y="117.4" width="123.64" height="1.56" transform="translate(-55.7 85.53) rotate(-40.54)" style="fill:#faba16;"/><rect x="27.15" y="118.59" width="123.64" height="1.56" transform="translate(-56.23 86.48) rotate(-40.54)" style="fill:#fab916;"/><rect x="28.16" y="119.78" width="123.64" height="1.56" transform="translate(-56.76 87.42) rotate(-40.54)" style="fill:#fab916;"/><rect x="29.18" y="120.97" width="123.64" height="1.56" transform="translate(-57.29 88.37) rotate(-40.54)" style="fill:#fab916;"/><rect x="30.19" y="122.15" width="123.64" height="1.56" transform="translate(-57.82 89.31) rotate(-40.54)" style="fill:#fbb816;"/><rect x="31.21" y="123.34" width="123.64" height="1.56" transform="translate(-58.34 90.26) rotate(-40.54)" style="fill:#fbb816;"/><rect x="32.22" y="124.53" width="123.64" height="1.56" transform="translate(-58.87 91.2) rotate(-40.54)" style="fill:#fbb816;"/><rect x="33.24" y="125.71" width="123.64" height="1.56" transform="translate(-59.4 92.15) rotate(-40.54)" style="fill:#fbb816;"/><rect x="34.25" y="126.9" width="123.64" height="1.56" transform="translate(-59.93 93.09) rotate(-40.54)" style="fill:#fbb716;"/><rect x="35.27" y="128.09" width="123.64" height="1.56" transform="translate(-60.46 94.04) rotate(-40.54)" style="fill:#fbb716;"/><rect x="36.28" y="129.28" width="123.64" height="1.56" transform="translate(-60.98 94.98) rotate(-40.54)" style="fill:#fbb716;"/><rect x="37.3" y="130.46" width="123.64" height="1.56" transform="translate(-61.51 95.93) rotate(-40.54)" style="fill:#fbb716;"/><rect x="38.31" y="131.65" width="123.64" height="1.56" transform="translate(-62.04 96.87) rotate(-40.54)" style="fill:#fbb716;"/><rect x="39.33" y="132.84" width="123.64" height="1.56" transform="translate(-62.57 97.82) rotate(-40.54)" style="fill:#fbb716;"/><rect x="40.34" y="134.02" width="123.64" height="1.56" transform="translate(-63.09 98.76) rotate(-40.54)" style="fill:#fbb616;"/><rect x="41.36" y="135.21" width="123.64" height="1.56" transform="translate(-63.62 99.71) rotate(-40.54)" style="fill:#fbb615;"/><rect x="42.38" y="136.4" width="123.64" height="1.56" transform="translate(-64.15 100.65) rotate(-40.54)" style="fill:#fbb615;"/><polygon points="151.69 97.59 152.5 98.54 152.5 98.95 58.74 179.14 57.72 177.95 151.69 97.59" style="fill:#fbb615;"/><polygon points="152.5 101.01 59.75 180.33 58.74 179.14 152.5 98.95 152.5 101.01" style="fill:#fbb615;"/><polygon points="152.5 103.06 61.28 181.08 60.4 181.08 59.75 180.33 152.5 101.01 152.5 103.06" style="fill:#fbb615;"/><polygon points="152.5 105.12 63.68 181.08 61.28 181.08 152.5 103.06 152.5 105.12" style="fill:#fbb615;"/><polygon points="152.5 107.18 66.08 181.08 63.68 181.08 152.5 105.12 152.5 107.18" style="fill:#fbb615;"/><polygon points="152.5 109.23 68.49 181.08 66.08 181.08 152.5 107.18 152.5 109.23" style="fill:#fbb615;"/><polygon points="152.5 111.29 70.89 181.08 68.49 181.08 152.5 109.23 152.5 111.29" style="fill:#fbb615;"/><polygon points="152.5 113.34 73.29 181.08 70.89 181.08 152.5 111.29 152.5 113.34" style="fill:#fbb615;"/><polygon points="152.5 115.4 75.7 181.08 73.29 181.08 152.5 113.34 152.5 115.4" style="fill:#fbb615;"/><polygon points="152.5 117.45 78.1 181.08 75.7 181.08 152.5 115.4 152.5 117.45" style="fill:#fbb615;"/><polygon points="152.5 119.51 80.5 181.08 78.1 181.08 152.5 117.45 152.5 119.51" style="fill:#fbb615;"/><polygon points="152.5 121.56 82.91 181.08 80.5 181.08 152.5 119.51 152.5 121.56" style="fill:#fbb615;"/><polygon points="152.5 123.62 85.31 181.08 82.91 181.08 152.5 121.56 152.5 123.62" style="fill:#fbb615;"/><polygon points="152.5 125.68 87.71 181.08 85.31 181.08 152.5 123.62 152.5 125.68" style="fill:#fbb615;"/><polygon points="152.5 127.73 90.12 181.08 87.71 181.08 152.5 125.68 152.5 127.73" style="fill:#fbb615;"/><polygon points="152.5 129.79 92.52 181.08 90.12 181.08 152.5 127.73 152.5 129.79" style="fill:#fbb615;"/><polygon points="152.5 131.84 94.92 181.08 92.52 181.08 152.5 129.79 152.5 131.84" style="fill:#fbb615;"/><polygon points="152.5 133.9 97.33 181.08 94.92 181.08 152.5 131.84 152.5 133.9" style="fill:#fbb615;"/><polygon points="152.5 135.95 99.73 181.08 97.33 181.08 152.5 133.9 152.5 135.95" style="fill:#fbb615;"/><polygon points="152.5 138.01 102.13 181.08 99.73 181.08 152.5 135.95 152.5 138.01" style="fill:#fbb615;"/><polygon points="152.5 140.06 104.54 181.08 102.13 181.08 152.5 138.01 152.5 140.06" style="fill:#fbb615;"/><polygon points="152.5 142.12 106.94 181.08 104.54 181.08 152.5 140.06 152.5 142.12" style="fill:#fbb615;"/><polygon points="152.5 144.17 109.34 181.08 106.94 181.08 152.5 142.12 152.5 144.17" style="fill:#fbb615;"/><polygon points="152.5 146.23 111.75 181.08 109.34 181.08 152.5 144.17 152.5 146.23" style="fill:#fbb615;"/><polygon points="152.5 148.29 114.15 181.08 111.75 181.08 152.5 146.23 152.5 148.29" style="fill:#fbb615;"/><polygon points="152.5 150.34 116.55 181.08 114.15 181.08 152.5 148.29 152.5 150.34" style="fill:#fbb615;"/><polygon points="152.5 152.4 118.96 181.08 116.55 181.08 152.5 150.34 152.5 152.4" style="fill:#fbb615;"/><polygon points="152.5 154.45 121.36 181.08 118.96 181.08 152.5 152.4 152.5 154.45" style="fill:#fbb615;"/><polygon points="152.5 156.51 123.76 181.08 121.36 181.08 152.5 154.45 152.5 156.51" style="fill:#fbb615;"/><polygon points="152.5 158.56 126.17 181.08 123.76 181.08 152.5 156.51 152.5 158.56" style="fill:#fbb615;"/><polygon points="152.5 160.62 128.57 181.08 126.17 181.08 152.5 158.56 152.5 160.62" style="fill:#fbb615;"/><polygon points="128.57 181.08 152.5 160.62 152.5 181.08 128.57 181.08" style="fill:#fbb615;"/></g><g style="clip-path:url(#clippath-3);"><polygon points="192.58 133.26 175.27 62.77 192.58 62.77 192.58 133.26" style="fill:#fbb615;"/><polygon points="192.58 136.82 174.4 62.77 175.27 62.77 192.58 133.26 192.58 136.82" style="fill:#fbb615;"/><polygon points="192.58 140.38 173.52 62.77 174.4 62.77 192.58 136.82 192.58 140.38" style="fill:#fbb615;"/><polygon points="192.58 143.94 172.65 62.77 173.52 62.77 192.58 140.38 192.58 143.94" style="fill:#fbb615;"/><polygon points="192.58 147.5 171.78 62.77 172.65 62.77 192.58 143.94 192.58 147.5" style="fill:#fbb615;"/><polygon points="192.58 151.06 170.9 62.77 171.78 62.77 192.58 147.5 192.58 151.06" style="fill:#fbb615;"/><polygon points="192.58 154.62 170.03 62.77 170.9 62.77 192.58 151.06 192.58 154.62" style="fill:#fbb615;"/><polygon points="192.58 158.17 169.15 62.77 170.03 62.77 192.58 154.62 192.58 158.17" style="fill:#fbb615;"/><polygon points="192.58 161.73 168.28 62.77 169.15 62.77 192.58 158.17 192.58 161.73" style="fill:#fbb615;"/><polygon points="192.58 165.29 167.41 62.77 168.28 62.77 192.58 161.73 192.58 165.29" style="fill:#fbb615;"/><polygon points="192.58 168.85 166.53 62.77 167.41 62.77 192.58 165.29 192.58 168.85" style="fill:#fbb615;"/><polygon points="192.58 168.88 191.77 169.08 165.66 62.77 166.53 62.77 192.58 168.85 192.58 168.88" style="fill:#fbb615;"/><polygon points="191.77 169.08 190.94 169.29 164.78 62.77 165.66 62.77 191.77 169.08" style="fill:#fbb716;"/><polygon points="190.94 169.29 190.12 169.49 163.91 62.77 164.78 62.77 190.94 169.29" style="fill:#fbb716;"/><polygon points="190.12 169.49 189.29 169.69 163.04 62.77 163.91 62.77 190.12 169.49" style="fill:#fbb716;"/><polygon points="189.29 169.69 188.47 169.89 162.16 62.77 163.04 62.77 189.29 169.69" style="fill:#fbb716;"/><polygon points="188.47 169.89 187.65 170.1 161.29 62.77 162.16 62.77 188.47 169.89" style="fill:#fbb716;"/><polygon points="187.65 170.1 186.82 170.3 160.41 62.77 161.29 62.77 187.65 170.1" style="fill:#fbb716;"/><polygon points="186.82 170.3 186 170.5 159.54 62.77 160.41 62.77 186.82 170.3" style="fill:#fbb816;"/><polygon points="186 170.5 185.17 170.7 158.67 62.77 159.54 62.77 186 170.5" style="fill:#fbb816;"/><polygon points="185.17 170.7 184.35 170.91 157.79 62.77 158.67 62.77 185.17 170.7" style="fill:#fbb816;"/><polygon points="184.35 170.91 183.52 171.11 156.92 62.77 157.79 62.77 184.35 170.91" style="fill:#fab916;"/><polygon points="183.52 171.11 182.7 171.31 156.04 62.77 156.92 62.77 183.52 171.11" style="fill:#fab916;"/><polygon points="182.7 171.31 181.88 171.51 155.17 62.77 156.04 62.77 182.7 171.31" style="fill:#fab916;"/><polygon points="181.88 171.51 181.05 171.72 154.3 62.77 155.17 62.77 181.88 171.51" style="fill:#fab916;"/><polygon points="181.05 171.72 180.23 171.92 153.42 62.77 154.3 62.77 181.05 171.72" style="fill:#faba16;"/><polygon points="180.23 171.92 179.4 172.12 152.55 62.77 153.42 62.77 180.23 171.92" style="fill:#faba16;"/><polygon points="179.4 172.12 178.58 172.32 151.67 62.77 152.55 62.77 179.4 172.12" style="fill:#fabb16;"/><polygon points="178.58 172.32 177.75 172.53 150.8 62.77 151.67 62.77 178.58 172.32" style="fill:#fabb16;"/><polygon points="177.75 172.53 176.93 172.73 149.93 62.77 150.8 62.77 177.75 172.53" style="fill:#fabb16;"/><polygon points="176.93 172.73 176.11 172.93 149.05 62.77 149.93 62.77 176.93 172.73" style="fill:#fabc16;"/><polygon points="176.11 172.93 175.28 173.13 148.18 62.77 149.05 62.77 176.11 172.93" style="fill:#f9bc16;"/><polygon points="175.28 173.13 174.46 173.34 147.3 62.77 148.18 62.77 175.28 173.13" style="fill:#f9bd16;"/><polygon points="174.46 173.34 173.63 173.54 146.43 62.77 147.3 62.77 174.46 173.34" style="fill:#f9bd16;"/><polygon points="173.63 173.54 172.81 173.74 145.56 62.77 146.43 62.77 173.63 173.54" style="fill:#f9be16;"/><polygon points="172.81 173.74 171.98 173.94 144.68 62.77 145.56 62.77 172.81 173.74" style="fill:#f9be16;"/><polygon points="171.98 173.94 171.16 174.15 143.81 62.77 144.68 62.77 171.98 173.94" style="fill:#f9bf17;"/><polygon points="171.16 174.15 170.34 174.35 142.93 62.77 143.81 62.77 171.16 174.15" style="fill:#f9bf17;"/><polygon points="170.34 174.35 169.51 174.55 142.06 62.77 142.93 62.77 170.34 174.35" style="fill:#f9c017;"/><polygon points="169.51 174.55 168.69 174.75 141.19 62.77 142.06 62.77 169.51 174.55" style="fill:#f9c117;"/><polygon points="168.69 174.75 167.86 174.96 140.31 62.77 141.19 62.77 168.69 174.75" style="fill:#f8c117;"/><polygon points="167.86 174.96 167.04 175.16 139.44 62.77 140.31 62.77 167.86 174.96" style="fill:#f8c217;"/><polygon points="167.04 175.16 166.22 175.36 138.56 62.77 139.44 62.77 167.04 175.16" style="fill:#f8c217;"/><polygon points="166.22 175.36 165.39 175.56 137.69 62.77 138.56 62.77 166.22 175.36" style="fill:#f8c317;"/><polygon points="165.39 175.56 164.57 175.77 136.82 62.77 137.69 62.77 165.39 175.56" style="fill:#f8c417;"/><polygon points="164.57 175.77 163.74 175.97 135.94 62.77 136.82 62.77 164.57 175.77" style="fill:#f8c517;"/><polygon points="163.74 175.97 162.92 176.17 135.07 62.77 135.94 62.77 163.74 175.97" style="fill:#f8c517;"/><polygon points="162.92 176.17 162.09 176.37 134.19 62.77 135.07 62.77 162.92 176.17" style="fill:#f8c617;"/><polygon points="162.09 176.37 161.27 176.57 133.32 62.77 134.19 62.77 162.09 176.37" style="fill:#f8c717;"/><polygon points="161.27 176.57 160.45 176.78 132.45 62.77 133.32 62.77 161.27 176.57" style="fill:#f8c817;"/><polygon points="160.45 176.78 159.62 176.98 131.57 62.77 132.45 62.77 160.45 176.78" style="fill:#f7c817;"/><polygon points="159.62 176.98 158.8 177.18 130.7 62.77 131.57 62.77 159.62 176.98" style="fill:#f7c917;"/><polygon points="158.8 177.18 157.97 177.38 129.82 62.77 130.7 62.77 158.8 177.18" style="fill:#f7ca17;"/><polygon points="157.97 177.38 157.15 177.59 128.95 62.77 129.82 62.77 157.97 177.38" style="fill:#f7cb17;"/><polygon points="157.15 177.59 156.32 177.79 128.08 62.77 128.95 62.77 157.15 177.59" style="fill:#f7cc17;"/><polygon points="156.32 177.79 155.5 177.99 127.2 62.77 128.08 62.77 156.32 177.79" style="fill:#f7cc17;"/><polygon points="155.5 177.99 154.68 178.19 126.33 62.77 127.2 62.77 155.5 177.99" style="fill:#f7cd17;"/><polygon points="154.68 178.19 153.85 178.4 125.46 62.81 125.6 62.77 126.33 62.77 154.68 178.19" style="fill:#f7ce17;"/><rect x="138.82" y="61.19" width=".85" height="119.02" transform="translate(-24.77 36.7) rotate(-13.8)" style="fill:#f6cf17;"/><rect x="138" y="61.39" width=".85" height="119.02" transform="translate(-24.84 36.5) rotate(-13.8)" style="fill:#f6d017;"/><rect x="137.17" y="61.6" width=".85" height="119.02" transform="translate(-24.91 36.31) rotate(-13.8)" style="fill:#f6d117;"/><rect x="136.35" y="61.8" width=".85" height="119.02" transform="translate(-24.99 36.12) rotate(-13.8)" style="fill:#f6d218;"/><rect x="135.52" y="62" width=".85" height="119.02" transform="translate(-25.06 35.93) rotate(-13.8)" style="fill:#f6d318;"/><rect x="134.7" y="62.2" width=".85" height="119.02" transform="translate(-25.13 35.74) rotate(-13.8)" style="fill:#f6d418;"/><rect x="133.87" y="62.41" width=".85" height="119.02" transform="translate(-25.2 35.55) rotate(-13.8)" style="fill:#f5d518;"/><rect x="133.05" y="62.61" width=".85" height="119.02" transform="translate(-25.28 35.36) rotate(-13.8)" style="fill:#f5d618;"/><rect x="132.23" y="62.81" width=".85" height="119.02" transform="translate(-25.35 35.17) rotate(-13.8)" style="fill:#f5d718;"/><rect x="131.4" y="63.01" width=".85" height="119.02" transform="translate(-25.42 34.98) rotate(-13.8)" style="fill:#f5d818;"/><rect x="130.58" y="63.22" width=".85" height="119.02" transform="translate(-25.49 34.79) rotate(-13.8)" style="fill:#f5d918;"/><rect x="129.75" y="63.42" width=".85" height="119.02" transform="translate(-25.56 34.6) rotate(-13.8)" style="fill:#f5db19;"/><rect x="128.93" y="63.62" width=".85" height="119.02" transform="translate(-25.64 34.41) rotate(-13.8)" style="fill:#f5dc19;"/><rect x="128.1" y="63.82" width=".85" height="119.02" transform="translate(-25.71 34.22) rotate(-13.8)" style="fill:#f4dd19;"/><rect x="127.28" y="64.03" width=".85" height="119.02" transform="translate(-25.78 34.02) rotate(-13.8)" style="fill:#f4de19;"/><rect x="126.46" y="64.23" width=".85" height="119.02" transform="translate(-25.85 33.83) rotate(-13.8)" style="fill:#f4df19;"/><rect x="125.63" y="64.43" width=".85" height="119.02" transform="translate(-25.92 33.64) rotate(-13.8)" style="fill:#f4e019;"/><rect x="124.81" y="64.63" width=".85" height="119.02" transform="translate(-26 33.45) rotate(-13.8)" style="fill:#f4e21a;"/><rect x="123.98" y="64.83" width=".85" height="119.02" transform="translate(-26.07 33.26) rotate(-13.8)" style="fill:#f3e31a;"/><rect x="123.16" y="65.04" width=".85" height="119.02" transform="translate(-26.14 33.07) rotate(-13.8)" style="fill:#f3e41a;"/><rect x="122.33" y="65.24" width=".85" height="119.02" transform="translate(-26.21 32.88) rotate(-13.8)" style="fill:#f3e61a;"/><rect x="121.51" y="65.44" width=".85" height="119.02" transform="translate(-26.28 32.69) rotate(-13.8)" style="fill:#f3e81a;"/><rect x="120.69" y="65.64" width=".85" height="119.02" transform="translate(-26.36 32.5) rotate(-13.8)" style="fill:#f3ea1a;"/><polygon points="134.89 183.05 123.42 185.87 39.81 185.87 39.81 83.84 106.5 67.46 134.89 183.05" style="fill:#f3ea1a;"/></g><g style="clip-path:url(#clippath-4);"><polygon points="99.03 89.81 117.67 84.09 117.67 115.25 99.03 115.25 99.03 89.81" style="fill:#f3ea1a;"/><polygon points="99.03 89 117.67 83.28 117.67 84.09 99.03 89.81 99.03 89" style="fill:#f3ea1a;"/><polygon points="99.03 88.19 117.67 82.46 117.67 83.28 99.03 89 99.03 88.19" style="fill:#f3e51a;"/><polygon points="99.03 87.37 117.67 81.65 117.67 82.46 99.03 88.19 99.03 87.37" style="fill:#f3e21a;"/><polygon points="99.03 86.56 117.67 80.84 117.67 81.65 99.03 87.37 99.03 86.56" style="fill:#f4e019;"/><polygon points="99.03 85.75 117.67 80.02 117.67 80.84 99.03 86.56 99.03 85.75" style="fill:#f4dd19;"/><polygon points="99.03 84.93 117.67 79.21 117.67 80.02 99.03 85.75 99.03 84.93" style="fill:#f5db19;"/><polygon points="99.03 84.12 117.67 78.4 117.67 79.21 99.03 84.93 99.03 84.12" style="fill:#f5d918;"/><polygon points="99.03 83.3 117.67 77.58 117.67 78.4 99.03 84.12 99.03 83.3" style="fill:#f5d618;"/><polygon points="99.03 82.49 117.67 76.77 117.67 77.58 99.03 83.3 99.03 82.49" style="fill:#f6d418;"/><polygon points="99.03 81.68 117.67 75.96 117.67 76.77 99.03 82.49 99.03 81.68" style="fill:#f6d218;"/><polygon points="99.03 80.86 117.67 75.14 117.67 75.96 99.03 81.68 99.03 80.86" style="fill:#f6d117;"/><polygon points="99.03 80.05 117.67 74.33 117.67 75.14 99.03 80.86 99.03 80.05" style="fill:#f6cf17;"/><polygon points="99.03 79.24 117.67 73.51 117.67 74.33 99.03 80.05 99.03 79.24" style="fill:#f7cd17;"/><polygon points="99.03 78.42 117.67 72.7 117.67 73.51 99.03 79.24 99.03 78.42" style="fill:#f7cc17;"/><polygon points="99.03 77.61 117.67 71.89 117.67 72.7 99.03 78.42 99.03 77.61" style="fill:#f7ca17;"/><polygon points="99.03 76.79 117.67 71.07 117.67 71.89 99.03 77.61 99.03 76.79" style="fill:#f7c917;"/><polygon points="99.03 75.98 117.67 70.26 117.67 71.07 99.03 76.79 99.03 75.98" style="fill:#f8c717;"/><polygon points="99.03 75.17 117.67 69.45 117.67 70.26 99.03 75.98 99.03 75.17" style="fill:#f8c617;"/><polygon points="99.03 74.35 117.67 68.63 117.67 69.45 99.03 75.17 99.03 74.35" style="fill:#f8c517;"/><polygon points="99.03 73.54 117.67 67.82 117.67 68.63 99.03 74.35 99.03 73.54" style="fill:#f8c417;"/><polygon points="99.03 72.73 117.67 67 117.67 67.82 99.03 73.54 99.03 72.73" style="fill:#f8c317;"/><polygon points="99.03 71.91 117.67 66.19 117.67 67 99.03 72.73 99.03 71.91" style="fill:#f8c217;"/><polygon points="99.03 71.1 117.67 65.38 117.67 66.19 99.03 71.91 99.03 71.1" style="fill:#f9c117;"/><polygon points="99.03 70.29 117.67 64.56 117.67 65.38 99.03 71.1 99.03 70.29" style="fill:#f9c017;"/><polygon points="99.03 69.47 117.67 63.75 117.67 64.56 99.03 70.29 99.03 69.47" style="fill:#f9bf17;"/><polygon points="99.03 68.66 117.67 62.94 117.67 63.75 99.03 69.47 99.03 68.66" style="fill:#f9be16;"/><polygon points="99.03 67.84 117.67 62.12 117.67 62.94 99.03 68.66 99.03 67.84" style="fill:#f9be16;"/><polygon points="99.03 67.03 117.67 61.31 117.67 62.12 99.03 67.84 99.03 67.03" style="fill:#f9bd16;"/><polygon points="99.03 66.22 117.67 60.5 117.67 61.31 99.03 67.03 99.03 66.22" style="fill:#fabc16;"/><polygon points="99.03 65.4 117.67 59.68 117.67 60.5 99.03 66.22 99.03 65.4" style="fill:#fabc16;"/><polygon points="99.03 64.59 117.67 58.87 117.67 59.68 99.03 65.4 99.03 64.59" style="fill:#fabb16;"/><polygon points="99.03 63.78 117.67 58.05 117.67 58.87 99.03 64.59 99.03 63.78" style="fill:#fabb16;"/><polygon points="99.03 62.96 117.67 57.24 117.67 58.05 99.03 63.78 99.03 62.96" style="fill:#faba16;"/><polygon points="99.03 62.15 117.67 56.43 117.67 57.24 99.03 62.96 99.03 62.15" style="fill:#faba16;"/><polygon points="99.03 61.33 117.67 55.61 117.67 56.43 99.03 62.15 99.03 61.33" style="fill:#fab916;"/><polygon points="99.03 60.52 117.67 54.8 117.67 55.61 99.03 61.33 99.03 60.52" style="fill:#fab916;"/><polygon points="99.03 59.71 117.67 53.99 117.67 54.8 99.03 60.52 99.03 59.71" style="fill:#fab916;"/><polygon points="99.03 58.89 117.67 53.17 117.67 53.99 99.03 59.71 99.03 58.89" style="fill:#fbb816;"/><polygon points="99.03 58.08 117.67 52.36 117.67 53.17 99.03 58.89 99.03 58.08" style="fill:#fbb816;"/><polygon points="99.03 57.27 117.67 51.54 117.67 52.36 99.03 58.08 99.03 57.27" style="fill:#fbb816;"/><polygon points="99.03 56.45 117.67 50.73 117.67 51.54 99.03 57.27 99.03 56.45" style="fill:#fbb816;"/><polygon points="99.03 55.64 117.67 49.92 117.67 50.73 99.03 56.45 99.03 55.64" style="fill:#fbb716;"/><polygon points="99.03 54.83 117.67 49.1 117.67 49.92 99.03 55.64 99.03 54.83" style="fill:#fbb716;"/><polygon points="99.03 54.01 117.67 48.29 117.67 49.1 99.03 54.83 99.03 54.01" style="fill:#fbb716;"/><polygon points="99.03 53.2 117.67 47.48 117.67 48.29 99.03 54.01 99.03 53.2" style="fill:#fbb716;"/><polygon points="99.03 52.38 117.67 46.66 117.67 47.48 99.03 53.2 99.03 52.38" style="fill:#fbb716;"/><polygon points="99.03 51.57 117.67 45.85 117.67 46.66 99.03 52.38 99.03 51.57" style="fill:#fbb716;"/><polygon points="99.03 50.76 117.67 45.04 117.67 45.85 99.03 51.57 99.03 50.76" style="fill:#fbb616;"/><polygon points="99.03 49.94 117.67 44.22 117.67 45.04 99.03 50.76 99.03 49.94" style="fill:#fbb615;"/><polygon points="99.03 49.13 117.67 43.41 117.67 44.22 99.03 49.94 99.03 49.13" style="fill:#fbb615;"/><polygon points="99.03 48.32 117.67 42.59 117.67 43.41 99.03 49.13 99.03 48.32" style="fill:#fbb615;"/><polygon points="99.03 47.5 117.67 41.78 117.67 42.59 99.03 48.32 99.03 47.5" style="fill:#fbb615;"/><polygon points="99.03 46.69 117.67 40.97 117.67 41.78 99.03 47.5 99.03 46.69" style="fill:#fbb615;"/><polygon points="99.03 45.88 117.67 40.15 117.67 40.97 99.03 46.69 99.03 45.88" style="fill:#fbb615;"/><polygon points="99.03 45.06 117.67 39.34 117.67 40.15 99.03 45.88 99.03 45.06" style="fill:#fbb615;"/><polygon points="99.03 44.25 117.67 38.53 117.67 39.34 99.03 45.06 99.03 44.25" style="fill:#fbb615;"/><polygon points="99.03 43.43 117.67 37.71 117.67 38.53 99.03 44.25 99.03 43.43" style="fill:#fbb615;"/><polygon points="99.03 42.62 117.67 36.9 117.67 37.71 99.03 43.43 99.03 42.62" style="fill:#fbb615;"/><polygon points="99.03 41.81 117.67 36.09 117.67 36.9 99.03 42.62 99.03 41.81" style="fill:#fbb615;"/><polygon points="99.03 40.99 117.67 35.27 117.67 36.09 99.03 41.81 99.03 40.99" style="fill:#fbb615;"/><polygon points="99.03 40.18 117.67 34.46 117.67 35.27 99.03 40.99 99.03 40.18" style="fill:#fbb615;"/><polygon points="99.03 39.37 117.67 33.64 117.67 34.46 99.03 40.18 99.03 39.37" style="fill:#fbb615;"/><polygon points="99.03 38.55 115.63 33.46 117.67 33.46 117.67 33.64 99.03 39.37 99.03 38.55" style="fill:#fbb615;"/><polygon points="99.03 37.74 112.98 33.46 115.63 33.46 99.03 38.55 99.03 37.74" style="fill:#fbb615;"/><polygon points="99.03 36.92 110.32 33.46 112.98 33.46 99.03 37.74 99.03 36.92" style="fill:#fbb615;"/><polygon points="99.03 36.11 107.67 33.46 110.32 33.46 99.03 36.92 99.03 36.11" style="fill:#fbb615;"/><polygon points="99.03 35.3 105.02 33.46 107.67 33.46 99.03 36.11 99.03 35.3" style="fill:#fbb615;"/><polygon points="99.03 34.48 102.37 33.46 105.02 33.46 99.03 35.3 99.03 34.48" style="fill:#fbb615;"/><polygon points="99.03 33.67 99.72 33.46 102.37 33.46 99.03 34.48 99.03 33.67" style="fill:#fbb615;"/><polygon points="99.72 33.46 99.03 33.67 99.03 33.46 99.72 33.46" style="fill:#fbb615;"/></g></svg>