<?xml version="1.0" encoding="utf-8"?>
<!-- Generator: Adobe Illustrator 27.0.0, SVG Export Plug-In . SVG Version: 6.00 Build 0)  -->
<svg version="1.1" id="Layer_1" xmlns="http://www.w3.org/2000/svg" xmlns:xlink="http://www.w3.org/1999/xlink" x="0px" y="0px"
	 viewBox="0 0 377.8 355.3" enable-background="new 0 0 377.8 355.3" xml:space="preserve">
<g>
	<path d="M340.9,184.7c0,77.6-68.4,140.5-152.7,140.5c-23.3,0-45.4-4.8-65.2-13.4l-51.4,11.6l30.1-22.8
		c-40-25.3-66.2-67.8-66.2-115.8c0-77.6,68.4-140.5,152.7-140.5S340.9,107.1,340.9,184.7z"/>
	<linearGradient id="SVGID_1_" gradientUnits="userSpaceOnUse" x1="294.4215" y1="156.0383" x2="228.0797" y2="53.5974">
		<stop  offset="5.489460e-02" style="stop-color:#F3EA1A"/>
		<stop  offset="0.1463" style="stop-color:#F5DD19"/>
		<stop  offset="0.3201" style="stop-color:#F7CD17"/>
		<stop  offset="0.4969" style="stop-color:#FAC016"/>
		<stop  offset="0.6767" style="stop-color:#FCB915"/>
		<stop  offset="0.8642" style="stop-color:#FDB714"/>
	</linearGradient>
	<path fill="url(#SVGID_1_)" d="M329.4,182.6c0,2.7,0,5.5-0.1,8.2c0,0,0,0.1,0,0.1c0,0.1,0,0.2,0,0.3c0,0.8-0.1,1.6-0.2,2.4
		c-0.1,0.9-0.1,1.8-0.2,2.7c0,0.4-0.1,0.9-0.1,1.3l-0.2,1.3c-0.1,0.8-0.2,1.5-0.3,2.3c-0.1,0.7-0.2,1.4-0.3,2.1
		c-0.1,0.9-0.3,1.8-0.5,2.6c-0.1,0.8-0.3,1.5-0.4,2.3c0,0,0,0,0,0c-0.1,0.7-0.3,1.3-0.4,2c-0.1,0.5-0.2,0.9-0.3,1.4
		c-0.1,0.3-0.2,0.7-0.2,1c-0.1,0.5-0.2,1-0.4,1.4c-0.2,0.7-0.4,1.4-0.5,2c-0.1,0.2-0.1,0.4-0.1,0.5c-0.2,0.5-0.3,1.1-0.5,1.6
		c-0.5,1.8-1.1,3.6-1.7,5.4c-0.1,0.2-0.1,0.4-0.2,0.5c-0.2,0.5-0.4,1.1-0.6,1.6c-0.1,0.1-0.1,0.3-0.2,0.4v0c0,0,0,0,0,0
		c-0.2,0.4-0.3,0.8-0.5,1.2c-0.3,0.9-0.7,1.7-1,2.6c-0.1,0.1-0.1,0.2-0.2,0.4c-0.5,1.3-1.1,2.6-1.7,3.9c0,0.1-0.1,0.1-0.1,0.2
		c-0.2,0.5-0.4,0.9-0.7,1.4c-0.1,0.1-0.1,0.3-0.2,0.5c-0.3,0.6-0.5,1.1-0.8,1.7c-0.1,0.1-0.1,0.2-0.1,0.3c-0.3,0.6-0.6,1.2-0.9,1.8
		c-1,1.9-2,3.8-3.1,5.7c20.9-36.6,14.7-79.9-12.4-109.6c-2.8-3.1-5.8-6-9-8.7c-0.3-0.2-0.6-0.5-0.9-0.7c-0.2-0.2-0.4-0.3-0.6-0.5
		c-0.4-0.4-0.8-0.7-1.3-1c-0.6-0.5-1.3-1-2-1.5c-0.6-0.4-1.2-0.9-1.7-1.3c-0.6-0.4-1.1-0.8-1.7-1.2c-0.2-0.1-0.4-0.3-0.5-0.4
		c-2-1.4-4.1-2.7-6.2-4c-1.8-1-3.6-2-5.5-3c-0.5-0.3-1.1-0.5-1.6-0.8c-1-0.5-2.1-1-3.2-1.5c-0.9-0.4-1.8-0.8-2.7-1.2
		c-4.7-2-9.5-3.6-14.3-4.9c-0.6-0.2-1.2-0.3-1.8-0.5c-2.6-0.6-5.1-1.2-7.7-1.7c-1.4-0.3-2.8-0.5-4.2-0.7c-1.4-0.2-2.8-0.4-4.2-0.5
		c6.3-11.6,19.3-19.6,34.3-19.8c4.3-0.1,8.4,0.5,12.3,1.6c7.2,5.5,13.8,11.6,19.7,18.3c0,0,0,0.1,0.1,0.1c0.1,0.1,0.2,0.2,0.3,0.4
		c0.1,0.1,0.2,0.3,0.3,0.4c0.2,0.3,0.4,0.5,0.7,0.8c0.3,0.4,0.6,0.7,0.9,1.1c0,0,0.1,0.1,0.1,0.1c0,0,0,0,0.1,0.1
		c0,0,0.1,0.1,0.1,0.1c0.5,0.6,1,1.3,1.5,1.9c0.4,0.4,0.7,0.9,1,1.3c0.3,0.4,0.6,0.8,0.9,1.2c0.1,0.1,0.1,0.1,0.1,0.2
		c0.1,0.1,0.2,0.3,0.3,0.4c0.1,0.1,0.2,0.3,0.3,0.4c0.3,0.4,0.5,0.7,0.8,1.1c1.4,1.9,2.7,3.8,3.9,5.7c0.6,0.9,1.1,1.8,1.7,2.7
		c0.1,0.2,0.3,0.5,0.4,0.7c0,0.1,0.1,0.1,0.1,0.2l0.2,0.3c0.5,0.8,1,1.6,1.4,2.4c0.1,0.1,0.1,0.2,0.2,0.4c0,0.1,0.1,0.1,0.1,0.2
		l0.2,0.3c0.2,0.4,0.4,0.7,0.6,1.1c0,0,0,0,0,0c0.1,0.2,0.2,0.4,0.3,0.5c0.1,0.2,0.2,0.4,0.3,0.5c0.1,0.1,0.1,0.3,0.2,0.4
		c0,0,0,0,0,0.1c0.2,0.4,0.4,0.7,0.5,1.1c0.2,0.5,0.5,0.9,0.7,1.4c0.4,0.8,0.8,1.7,1.2,2.5c0.2,0.4,0.4,0.8,0.5,1.1
		c0.2,0.4,0.4,0.8,0.5,1.1c4,8.9,6.9,18.2,8.7,27.7c0.2,0.9,0.3,1.7,0.5,2.6c0,0,0,0.1,0,0.1c0.1,0.7,0.2,1.5,0.3,2.2c0,0,0,0,0,0
		c0,0,0,0.1,0,0.1c0,0.1,0,0.3,0.1,0.4c0.1,0.6,0.2,1.3,0.3,1.9c0.1,0.6,0.1,1.2,0.2,1.8c0,0.3,0.1,0.5,0.1,0.8c0,0.1,0,0.1,0,0.2
		c0,0.4,0.1,0.7,0.1,1.1c0.1,0.5,0.1,1,0.1,1.5c0,0.5,0.1,1,0.1,1.5c0,0.1,0,0.3,0,0.4c0.1,0.7,0.1,1.4,0.1,2.1c0,0.1,0,0.2,0,0.3
		c0,0.3,0,0.5,0,0.8c0,0.3,0,0.5,0,0.8l0,0.1C329.4,181.5,329.4,182.1,329.4,182.6z"/>
	
		<linearGradient id="SVGID_00000024719881519927495270000003420109358867695772_" gradientUnits="userSpaceOnUse" x1="135.3323" y1="235.5904" x2="142.155" y2="106.8699" gradientTransform="matrix(0.9999 -1.483494e-02 1.483494e-02 0.9999 -6.3674 -14.741)">
		<stop  offset="0" style="stop-color:#F3EA1A"/>
		<stop  offset="5.574846e-02" style="stop-color:#F4DE19"/>
		<stop  offset="0.1548" style="stop-color:#F6CF17"/>
		<stop  offset="0.269" style="stop-color:#F8C417"/>
		<stop  offset="0.4059" style="stop-color:#FABC16"/>
		<stop  offset="0.588" style="stop-color:#FBB716"/>
		<stop  offset="1" style="stop-color:#FBB615"/>
	</linearGradient>
	<path fill="url(#SVGID_00000024719881519927495270000003420109358867695772_)" d="M186.9,249.6c-0.9,0-1.7,0-2.6,0c0,0,0,0-0.1,0
		c-0.9,0-1.7,0-2.5-0.1c-0.8,0-1.7-0.1-2.5-0.1c-0.8-0.1-1.7-0.1-2.5-0.2c-1.3-0.1-2.5-0.2-3.7-0.4c-0.6-0.1-1.2-0.2-1.9-0.2
		c-0.8-0.1-1.5-0.2-2.3-0.3c-1.5-0.2-3.1-0.5-4.6-0.8c-0.8-0.1-1.5-0.3-2.3-0.5c0,0-0.1,0-0.1,0c-1.5-0.3-3-0.7-4.4-1.1
		c-0.2,0-0.3-0.1-0.4-0.1c-1.3-0.4-2.7-0.7-4-1.1c-3.3-1-6.6-2.2-9.8-3.4c-1.4-0.6-2.9-1.2-4.3-1.8c-5.1-2.3-9.9-5-14.5-7.9
		c-1.3-0.9-2.6-1.7-3.8-2.6c-0.5-0.3-0.9-0.7-1.4-1c-1.4-1-2.8-2.1-4.1-3.2c-0.3-0.3-0.7-0.5-1-0.8c-0.3-0.3-0.7-0.6-1-0.8
		c-0.7-0.6-1.3-1.1-1.9-1.7c-1.3-1.2-2.5-2.3-3.8-3.6c-1.2-1.2-2.4-2.4-3.5-3.7c-14.9-16.5-24-37.5-24.4-60.5c0-0.5,0-1,0-1.5
		c0-1.5,0-2.9,0.1-4.4c0-0.7,0.1-1.4,0.1-2.1c0-0.6,0.1-1.2,0.1-1.7c0.1-0.7,0.1-1.5,0.2-2.2c0.1-0.8,0.2-1.6,0.3-2.3
		c0.4-2.9,1-5.8,1.7-8.6c0,0,0,0,0,0C86.7,111.7,97.2,95,111.8,82c19.1,2.1,34,17,34.3,35.1c0.1,5.2-1,10.2-3.1,14.7
		c-0.4,0.4-0.8,0.7-1.2,1.1c-1.1,1.1-2.1,2.1-3.2,3.2c-0.5,0.6-1.1,1.2-1.6,1.8c-1.1,1.2-2.1,2.4-3.1,3.6c-0.5,0.6-1,1.2-1.5,1.9
		c-0.5,0.6-0.9,1.2-1.3,1.8c-0.4,0.5-0.7,1-1.1,1.5c-0.3,0.4-0.6,0.9-0.9,1.3c-0.2,0.3-0.4,0.5-0.5,0.8c0,0,0,0,0,0
		c-0.2,0.3-0.4,0.6-0.6,0.8c-0.1,0.1-0.2,0.3-0.3,0.4c-0.2,0.3-0.4,0.6-0.6,0.9c-0.1,0.1-0.1,0.2-0.2,0.3c0,0,0,0.1-0.1,0.1
		c-0.6,0.9-1.2,1.9-1.8,2.9c0,0-0.1,0.1-0.1,0.2c-5.3,9.2-8.1,19.8-8,31C117.6,220.9,148.7,249.2,186.9,249.6z"/>
	
		<linearGradient id="SVGID_00000148650341779131196640000015456472911614015646_" gradientUnits="userSpaceOnUse" x1="95.4365" y1="130.2777" x2="237.0328" y2="295.8394">
		<stop  offset="0" style="stop-color:#F3EA1A"/>
		<stop  offset="5.842936e-02" style="stop-color:#F5DB19"/>
		<stop  offset="0.1411" style="stop-color:#F7CE17"/>
		<stop  offset="0.2389" style="stop-color:#F8C317"/>
		<stop  offset="0.3597" style="stop-color:#FABB16"/>
		<stop  offset="0.5293" style="stop-color:#FBB716"/>
		<stop  offset="1" style="stop-color:#FBB615"/>
	</linearGradient>
	<path fill="url(#SVGID_00000148650341779131196640000015456472911614015646_)" d="M263.6,206.9c-0.1,1.1-0.1,2.2-0.2,3.3
		c-0.1,1-0.2,1.9-0.3,2.9c-0.1,0.6-0.1,1.1-0.2,1.7c-0.1,0.8-0.2,1.7-0.4,2.5c-0.1,0.5-0.2,1.1-0.3,1.6c-0.1,0.6-0.2,1.3-0.4,1.9
		c-0.1,0.6-0.3,1.2-0.4,1.9c-0.3,1.5-0.7,3-1.1,4.5c-0.2,0.7-0.4,1.5-0.7,2.2c-0.2,0.7-0.5,1.5-0.7,2.2c-0.3,1-0.7,2-1,2.9
		c0,0,0,0,0,0c-0.6,1.6-1.2,3.1-1.9,4.6c-0.3,0.7-0.6,1.4-0.9,2c-0.1,0.2-0.2,0.4-0.3,0.6c-0.3,0.6-0.6,1.3-0.9,1.9
		c-0.3,0.5-0.5,1-0.8,1.5c-0.3,0.5-0.5,1-0.8,1.5c-0.3,0.5-0.5,1-0.8,1.5c-0.3,0.6-0.7,1.1-1,1.7c-0.7,1.1-1.4,2.2-2.1,3.3
		c-0.7,1.1-1.4,2.2-2.2,3.3c-0.8,1.1-1.6,2.1-2.4,3.2c-0.4,0.5-0.8,1.1-1.2,1.6c-0.9,1.1-1.9,2.2-2.8,3.4c-0.6,0.7-1.3,1.4-2,2.2
		c-7.2,7.6-15.7,14.3-25.6,19.8c-0.9,0.5-1.8,1-2.8,1.5c-0.9,0.5-1.9,0.9-2.8,1.4v0c-1.9,0.9-3.8,1.7-5.7,2.5
		c-0.5,0.2-1,0.4-1.5,0.6c-1,0.4-1.9,0.7-2.9,1.1c0,0,0,0,0,0c-1,0.4-1.9,0.7-2.9,1c-1.4,0.5-2.9,0.9-4.4,1.3c0,0,0,0,0,0
		c-45,12.8-95.6-3.6-122.1-42.1c0.4,0.6,0.8,1.2,1.2,1.8c0.4,0.5,0.7,1,1.1,1.5c-1.1-1.5-2.1-2.9-3.1-4.5c-0.2-0.3-0.5-0.7-0.7-1
		c-0.1-0.2-0.3-0.4-0.4-0.6c-0.3-0.5-0.6-1-0.9-1.5c-0.3-0.5-0.7-1-1-1.6c0,0-0.1-0.1-0.1-0.1c-0.4-0.6-0.7-1.2-1.1-1.8
		c-0.3-0.5-0.6-1-0.9-1.5c-0.6-1.1-1.2-2.3-1.8-3.4c-0.2-0.4-0.4-0.8-0.6-1.2c-0.3-0.5-0.5-0.9-0.7-1.4c-0.1-0.1-0.1-0.2-0.2-0.4
		c-0.3-0.6-0.6-1.1-0.8-1.7c0,0,0,0,0,0c-0.2-0.3-0.3-0.6-0.5-1c-0.1-0.3-0.3-0.6-0.4-1c-0.5-1.1-0.9-2.1-1.4-3.2
		c-0.2-0.6-0.5-1.2-0.7-1.7c-0.5-1.2-0.9-2.4-1.4-3.6c-0.4-1.2-0.8-2.4-1.2-3.6c-0.4-1.1-0.7-2.2-1.1-3.4c-0.2-0.6-0.4-1.2-0.5-1.8
		c-0.2-0.6-0.3-1.2-0.5-1.8c-0.1-0.2-0.1-0.5-0.2-0.8c-0.1-0.4-0.2-0.9-0.3-1.3c-0.4-1.7-0.8-3.4-1.2-5.1c0,0,0,0,0,0
		c0-0.1-0.1-0.2-0.1-0.3c0-0.2-0.1-0.5-0.1-0.7c0-0.1,0-0.2-0.1-0.3c-0.1-0.3-0.1-0.7-0.2-1c0,0,0-0.1,0-0.1c-0.1-0.7-0.2-1.3-0.3-2
		c-0.1-0.7-0.2-1.4-0.3-2.1c-0.1-0.7-0.2-1.4-0.3-2c0-0.1,0-0.1,0-0.1c-0.1-1-0.2-1.9-0.3-2.9c0-0.4-0.1-0.8-0.1-1.2
		c0-0.3-0.1-0.6-0.1-1c0-0.1,0-0.2,0-0.3c-0.2-2.4-0.3-4.9-0.3-7.3c0-1.9,0-3.9,0.1-5.8c0-0.6,0.1-1.3,0.1-1.9c0-0.1,0-0.1,0-0.2
		c0-0.4,0-0.9,0.1-1.3c0-0.6,0.1-1.3,0.1-1.9c0,0,0,0,0-0.1c0-0.5,0.1-0.9,0.1-1.3c0-0.4,0.1-0.9,0.1-1.3v-0.1
		c0.1-0.6,0.1-1.1,0.2-1.6c0-0.4,0.1-0.8,0.1-1.2c0-0.4,0.1-0.7,0.1-1.1c0-0.2,0.1-0.4,0.1-0.5c0-0.2,0.1-0.3,0.1-0.5
		c0.1-0.7,0.2-1.4,0.3-2.1c0.1-0.6,0.2-1.2,0.3-1.8c0.5-2.7,1-5.3,1.7-8c0.2-0.9,0.5-1.9,0.7-2.8c1.3-4.8,2.9-9.4,4.7-14
		c0-0.1,0.1-0.1,0.1-0.2c0.1-0.1,0.1-0.2,0.1-0.3c0.2-0.4,0.4-0.8,0.5-1.3c0.3-0.6,0.5-1.2,0.8-1.8c0.2-0.3,0.3-0.7,0.5-1.1
		c0.2-0.5,0.4-0.9,0.7-1.4c0,0,0-0.1,0.1-0.1c0.3-0.5,0.5-1.1,0.8-1.6c0.1-0.1,0.1-0.2,0.2-0.3c0.1-0.2,0.3-0.5,0.4-0.7
		c0.1-0.3,0.3-0.5,0.4-0.8c0.1-0.2,0.2-0.3,0.2-0.5c0,0,0.1-0.1,0.1-0.1c0,0,0.1-0.1,0.1-0.1c0.1-0.2,0.3-0.5,0.4-0.7
		c0-0.1,0.1-0.1,0.1-0.2c0.2-0.3,0.3-0.6,0.5-0.9c1-1.9,2.1-3.8,3.2-5.7c1.4-2.3,2.8-4.5,4.3-6.6c0,0,0.1-0.1,0.1-0.1
		c0,0,0.1-0.1,0.1-0.1c0.1-0.1,0.2-0.2,0.3-0.3c0.3-0.5,0.7-1,1-1.4c0.2-0.2,0.3-0.4,0.5-0.6c0.1-0.1,0.1-0.2,0.2-0.3
		c0.3-0.5,0.7-0.9,1-1.4c0.4-0.5,0.8-1.1,1.2-1.6c0.4-0.6,0.8-1.1,1.3-1.6c0,0,0,0,0,0c0.3-0.4,0.6-0.8,0.9-1.2
		c0.2-0.2,0.4-0.4,0.6-0.6c0.4-0.5,0.8-0.9,1.1-1.4c0,0,0.1-0.1,0.1-0.1c6.3-7.3,13.4-14,21.2-19.9c0.6-0.4,1.1-0.8,1.7-1.2
		c2.3-0.4,4.6-0.7,7-0.7c1.8,0,3.6,0.1,5.4,0.3c-14.6,13-25.1,29.7-29.7,48.4c0,0,0,0,0,0c-0.7,2.8-1.3,5.7-1.7,8.6
		c-0.1,0.8-0.2,1.5-0.3,2.3c0,0.4-0.1,0.7-0.1,1.1c0,0.4-0.1,0.7-0.1,1.1c-0.1,0.6-0.1,1.2-0.1,1.8c-0.1,0.7-0.1,1.4-0.1,2.1
		c-0.1,1.5-0.1,2.9-0.1,4.4c0,0.5,0,1,0,1.5c0.4,23,9.5,44,24.4,60.5c1.2,1.3,2.3,2.5,3.5,3.7c1.2,1.2,2.5,2.4,3.8,3.6
		c0.6,0.6,1.3,1.2,1.9,1.7c0.3,0.3,0.7,0.6,1,0.8c0.3,0.3,0.7,0.6,1,0.8c1.3,1.1,2.7,2.2,4.1,3.2c0.5,0.3,0.9,0.7,1.4,1
		c1.3,0.9,2.5,1.8,3.8,2.6c4.6,3,9.4,5.6,14.5,7.9c1.4,0.6,2.8,1.3,4.3,1.8c3.2,1.3,6.4,2.5,9.8,3.4c1.3,0.4,2.7,0.8,4,1.2
		c0.2,0,0.3,0.1,0.5,0.1c1.5,0.4,3,0.7,4.4,1.1c0,0,0.1,0,0.1,0c0.8,0.2,1.5,0.3,2.3,0.5c1.5,0.3,3,0.6,4.6,0.8
		c0.8,0.1,1.5,0.2,2.3,0.3c0.6,0.1,1.2,0.2,1.9,0.2c1.2,0.1,2.5,0.3,3.7,0.4c0.8,0.1,1.7,0.2,2.5,0.2c0.9,0.1,1.7,0.1,2.5,0.1
		c0.9,0,1.7,0.1,2.5,0.1c0,0,0,0,0.1,0c0.8,0,1.7,0,2.5,0c0,0,0.1,0,0.1,0c1.2,0,2.4,0,3.6-0.1c0.1,0,0.1,0,0.2,0
		c0.6,0,1.2-0.1,1.8-0.1c0.7,0,1.3-0.1,2-0.2c0.4,0,0.9-0.1,1.3-0.1c0.5-0.1,1.1-0.1,1.6-0.2c0.3,0,0.5-0.1,0.8-0.1
		c0.4-0.1,0.7-0.1,1.1-0.2c0.6-0.1,1.1-0.2,1.7-0.3c0.4-0.1,0.8-0.1,1.1-0.2c0.3,0,0.6-0.1,0.8-0.2c0.4-0.1,0.7-0.1,1-0.2
		c0.3-0.1,0.6-0.1,0.9-0.2c0.4-0.1,0.7-0.2,1.1-0.3c1-0.2,1.9-0.5,2.8-0.7c0.3-0.1,0.6-0.2,1-0.3c0.4-0.1,0.7-0.2,1-0.3
		c0.7-0.2,1.4-0.5,2.1-0.7c0.3-0.1,0.7-0.2,1-0.4c0.3-0.1,0.7-0.2,1-0.4c0.7-0.3,1.4-0.5,2-0.8c0.3-0.1,0.6-0.2,0.8-0.4
		c0.1,0,0.2-0.1,0.3-0.1c0.6-0.3,1.3-0.6,1.9-0.9c0.6-0.2,1.1-0.5,1.6-0.8c0.5-0.2,0.9-0.5,1.4-0.7c0.3-0.2,0.7-0.3,1-0.5
		c0.4-0.2,0.7-0.4,1-0.6c0.4-0.2,0.7-0.4,1-0.6c0.3-0.2,0.7-0.4,1-0.6c0.3-0.2,0.6-0.4,1-0.6c0.9-0.5,1.7-1.1,2.5-1.7
		c0.3-0.2,0.6-0.5,1-0.7c0.1-0.1,0.3-0.2,0.4-0.3c0.8-0.6,1.5-1.1,2.3-1.7c0.4-0.3,0.7-0.6,1.1-0.9c0.7-0.6,1.4-1.2,2.1-1.8
		c0.3-0.3,0.7-0.6,1-0.9c2.4-2.2,4.6-4.6,6.5-7.1c0.3-0.4,0.6-0.7,0.8-1.1c0.6-0.7,1.1-1.5,1.6-2.2c0.3-0.4,0.5-0.7,0.8-1.1
		c0-0.1,0.1-0.1,0.1-0.2c0.3-0.4,0.6-0.9,0.9-1.3c0.3-0.4,0.5-0.8,0.8-1.2c0.2-0.3,0.4-0.7,0.6-1.1c0.2-0.3,0.3-0.5,0.4-0.8
		c0.4-0.6,0.7-1.3,1-1.9c0.3-0.6,0.6-1.3,0.9-1.9c0.2-0.3,0.3-0.6,0.4-1c1.8-3.9,3.1-8,4-12.3c0.1-0.6,0.2-1.2,0.4-1.8
		c0.1-0.4,0.1-0.7,0.2-1.1c0.1-0.3,0.1-0.7,0.2-1c0.1-0.5,0.1-1,0.2-1.5c0.1-0.5,0.1-0.9,0.1-1.3c0.1-0.5,0.1-0.9,0.1-1.3
		c0-0.2,0-0.3,0-0.5c0-0.4,0.1-0.8,0.1-1.3c0-0.1,0-0.2,0-0.4c0-1,0-2.1,0-3.1c0-0.3,0-0.5,0-0.8c0-0.2,0-0.4,0-0.6
		c0-0.1,0-0.2,0-0.3c0-0.1,0-0.3,0-0.4v-0.1c0-0.4-0.1-0.9-0.1-1.3c0-0.4-0.1-0.8-0.1-1.3v0c0-0.4-0.1-0.7-0.1-1.1
		c-0.1-0.8-0.2-1.7-0.3-2.5c0-0.3-0.1-0.7-0.2-1c-0.2-1-0.4-2-0.6-3c-0.1-0.3-0.2-0.7-0.2-1c-0.1-0.3-0.2-0.7-0.2-1
		c0-0.2-0.1-0.4-0.2-0.5c-0.1-0.3-0.2-0.6-0.3-1c-0.1-0.2-0.1-0.4-0.2-0.6c-0.2-0.6-0.4-1.2-0.6-1.7c-0.2-0.5-0.4-1.1-0.6-1.6
		c-0.1-0.2-0.2-0.5-0.3-0.7c-0.1-0.4-0.3-0.8-0.5-1.2c-0.1-0.3-0.3-0.6-0.4-1c-0.4-1-0.8-1.9-1.3-2.8c-0.2-0.3-0.3-0.6-0.5-0.9
		c-0.3-0.6-0.6-1.3-1-1.9c-0.3-0.6-0.7-1.2-1.1-1.9c0.5,0.8,1,1.6,1.5,2.5c0.2,0.4,0.5,0.8,0.7,1.2c0.2,0.4,0.5,0.8,0.7,1.2
		c0.3,0.6,0.6,1.2,0.9,1.8c0.5,0.9,1,1.9,1.4,2.9c0.2,0.5,0.4,1,0.7,1.4c0.4,1,0.8,1.9,1.2,2.9c0.4,1,0.8,2,1.1,2.9
		c0.4,1,0.7,1.9,1,2.9c0,0,0,0,0,0.1c0.3,1,0.6,2,0.9,3c0,0,0,0,0,0c0.3,1,0.6,2,0.8,3c0,0,0,0,0,0c0.8,3.1,1.4,6.2,1.9,9.4
		c0.1,0.9,0.3,1.8,0.4,2.7c0.1,0.5,0.1,0.9,0.2,1.4C263.7,197.5,263.8,202.2,263.6,206.9z"/>
	
		<linearGradient id="SVGID_00000017498402768917316520000017828948354021114037_" gradientUnits="userSpaceOnUse" x1="323.3377" y1="183.054" x2="141.132" y2="227.8039">
		<stop  offset="0" style="stop-color:#FBB615"/>
		<stop  offset="0.1489" style="stop-color:#FBB816"/>
		<stop  offset="0.2872" style="stop-color:#F9BF17"/>
		<stop  offset="0.4214" style="stop-color:#F7CB17"/>
		<stop  offset="0.5522" style="stop-color:#F5DC19"/>
		<stop  offset="0.6309" style="stop-color:#F3EA1A"/>
	</linearGradient>
	<path fill="url(#SVGID_00000017498402768917316520000017828948354021114037_)" d="M135.1,305.8L84.7,317l27.7-21.8
		c-0.7-0.4-1.4-0.8-2-1.2c-0.4-0.3-0.9-0.5-1.3-0.8c-0.6-0.4-1.1-0.7-1.7-1.1c-0.2-0.1-0.4-0.3-0.6-0.4c-0.4-0.2-0.8-0.5-1.2-0.7
		c-0.2-0.1-0.4-0.2-0.5-0.3c-0.4-0.2-0.7-0.5-1.1-0.7c-0.4-0.2-0.7-0.5-1.1-0.7c-0.3-0.2-0.6-0.4-0.8-0.6c-0.3-0.2-0.6-0.4-0.8-0.6
		c-0.1-0.1-0.2-0.2-0.3-0.2c0,0-0.1-0.1-0.1-0.1c-0.5-0.4-1-0.7-1.5-1.1c-0.5-0.4-1-0.7-1.5-1.1c-0.1,0-0.1-0.1-0.2-0.1
		c-0.5-0.4-0.9-0.7-1.3-1c-0.2-0.1-0.3-0.3-0.5-0.4c0,0,0,0,0,0c0,0-0.1-0.1-0.1-0.1c-0.4-0.3-0.9-0.7-1.3-1
		c-0.4-0.3-0.9-0.7-1.3-1.1c-0.1,0-0.1-0.1-0.2-0.1c-0.2-0.1-0.3-0.3-0.5-0.4c-0.6-0.5-1.3-1.1-1.9-1.6c-2.3-2-4.5-4.1-6.7-6.2
		c-0.5-0.5-1-1-1.5-1.5c-0.8-0.8-1.6-1.6-2.4-2.5c-0.4-0.5-0.8-0.9-1.3-1.4c-0.2-0.2-0.4-0.5-0.6-0.7c-0.2-0.2-0.3-0.3-0.5-0.5
		c0-0.1-0.1-0.1-0.1-0.2c-0.2-0.2-0.3-0.4-0.5-0.5c-0.4-0.5-0.8-1-1.3-1.5c-0.3-0.4-0.7-0.8-1-1.2c-0.1-0.1-0.2-0.2-0.3-0.3
		c0,0,0,0-0.1-0.1c-0.2-0.2-0.4-0.4-0.5-0.7c-0.4-0.5-0.9-1.1-1.3-1.6c-0.4-0.5-0.8-1-1.2-1.6c0,0-0.1-0.1-0.1-0.1c0,0,0,0,0,0
		c-0.1-0.1-0.1-0.1-0.2-0.2c-0.4-0.5-0.8-1-1.2-1.6c0,0,0,0-0.1-0.1c-0.1-0.1-0.1-0.2-0.2-0.2c-0.4-0.5-0.7-1-1.1-1.5
		c-0.4-0.6-0.8-1.2-1.2-1.8c26.5,38.5,77,54.9,122.1,42.1c0,0,0,0,0,0c1.5-0.4,2.9-0.9,4.4-1.3c1-0.3,1.9-0.7,2.9-1c0,0,0,0,0,0
		c1-0.4,1.9-0.7,2.9-1.1c0.5-0.2,1-0.4,1.5-0.6c1.9-0.8,3.8-1.6,5.7-2.5v0c0.9-0.4,1.9-0.9,2.8-1.4c0.9-0.5,1.9-1,2.8-1.5
		c9.9-5.4,18.5-12.1,25.6-19.8c0.7-0.7,1.3-1.4,2-2.2c1-1.1,1.9-2.2,2.8-3.4c0.4-0.5,0.8-1,1.2-1.6c0.8-1,1.6-2.1,2.4-3.2
		c0.8-1.1,1.5-2.2,2.2-3.3c0.7-1.1,1.4-2.2,2.1-3.3c0.3-0.6,0.7-1.1,1-1.7c0.3-0.5,0.5-1,0.8-1.5c0.3-0.5,0.5-1,0.8-1.5
		c0.3-0.5,0.5-1,0.8-1.5c0.3-0.6,0.6-1.3,0.9-1.9c0.1-0.2,0.2-0.4,0.3-0.6c0.3-0.7,0.6-1.4,0.9-2c0.7-1.5,1.3-3.1,1.9-4.6
		c0,0,0,0,0,0c0.4-1,0.7-2,1-2.9c0.2-0.7,0.5-1.5,0.7-2.2c0.2-0.7,0.4-1.5,0.7-2.2c0.4-1.5,0.8-3,1.1-4.5c0.1-0.6,0.3-1.2,0.4-1.9
		c0.1-0.6,0.3-1.2,0.4-1.9c0.1-0.5,0.2-1.1,0.3-1.6c0.1-0.8,0.3-1.7,0.4-2.5c0.1-0.6,0.2-1.1,0.2-1.7c0.1-1,0.2-1.9,0.3-2.9
		c0.1-1.1,0.2-2.2,0.2-3.3c0.2-4.6,0.1-9.3-0.4-14c-0.1-0.5-0.1-0.9-0.2-1.4c-0.1-0.9-0.2-1.8-0.4-2.7c-0.5-3.1-1.1-6.3-1.9-9.4
		c0,0,0,0,0,0c-0.3-1-0.5-2-0.8-3c0,0,0,0,0,0c-0.3-1-0.6-2-0.9-3c0,0,0,0,0-0.1c-0.3-1-0.6-1.9-1-2.9c-0.3-1-0.7-2-1.1-2.9
		c-0.4-1-0.8-2-1.2-2.9c-0.2-0.5-0.4-1-0.7-1.4c-0.5-1-0.9-1.9-1.4-2.9c-0.3-0.6-0.6-1.2-0.9-1.8c-0.2-0.4-0.4-0.8-0.7-1.2
		c-0.2-0.4-0.5-0.8-0.7-1.2c-0.5-0.9-1.1-1.9-1.7-2.8c0-0.1-0.1-0.2-0.1-0.2c0-0.1-0.1-0.2-0.2-0.3c0,0,0,0,0,0c0,0,0,0,0,0
		c0,0,0,0,0,0c-0.6-0.9-1.2-1.9-1.8-2.8c0,0,0,0-0.1-0.1c0,0,0,0,0,0c-0.4-0.6-0.8-1.2-1.3-1.8c-0.3-0.3-0.5-0.7-0.8-1
		c-0.3-0.3-0.5-0.7-0.8-1c-0.4-0.5-0.9-1.1-1.3-1.6c-0.5-0.5-0.9-1-1.4-1.5c-0.9-1-1.9-2-2.9-3c-0.4-0.4-0.7-0.7-1.1-1
		c-0.1-0.1-0.2-0.2-0.3-0.3l-0.2-0.2c-0.3-0.3-0.6-0.5-0.9-0.8c-0.1-0.1-0.2-0.2-0.3-0.2c-0.1-0.1-0.2-0.1-0.3-0.2
		c0,0-0.1-0.1-0.1-0.1c0,0,0,0-0.1,0c0,0-0.1-0.1-0.1-0.1c0,0,0,0-0.1-0.1c-0.3-0.3-0.6-0.5-0.9-0.7c-0.7-0.5-1.3-1.1-2-1.6
		c-0.4-0.3-0.7-0.5-1.1-0.8c-0.3-0.2-0.6-0.4-0.9-0.6c-2.1-4.3-3.3-9-3.4-14.1c-0.1-6,1.4-11.7,4.1-16.7c1.4,0.1,2.8,0.3,4.2,0.5
		c1.4,0.2,2.8,0.4,4.2,0.7c2.6,0.5,5.2,1,7.7,1.7c0.6,0.1,1.2,0.3,1.8,0.5c4.8,1.3,9.6,2.9,14.3,4.9c0.9,0.4,1.8,0.8,2.7,1.2
		c1.1,0.5,2.1,1,3.2,1.5c0.5,0.3,1,0.5,1.6,0.8c1.9,1,3.7,2,5.5,3c2.1,1.3,4.2,2.6,6.2,4c0.2,0.1,0.4,0.2,0.5,0.4
		c0.6,0.4,1.1,0.8,1.7,1.2c0.6,0.4,1.2,0.8,1.7,1.3c0.7,0.5,1.3,1,2,1.5c0.4,0.3,0.8,0.7,1.3,1c0.2,0.1,0.4,0.3,0.6,0.5
		c0.3,0.2,0.6,0.5,0.9,0.7c3.2,2.8,6.2,5.7,9,8.7c27.1,29.7,33.3,73,12.4,109.6c1.1-1.9,2.1-3.8,3.1-5.7c-0.5,1-1.1,2.1-1.6,3.1
		c-0.6,1-1.1,2.1-1.7,3.1c-0.4,0.7-0.9,1.5-1.3,2.2c-0.3,0.5-0.6,1-0.9,1.5c-0.8,1.2-1.5,2.4-2.4,3.6c-0.4,0.5-0.7,1.1-1.1,1.6
		c-0.4,0.5-0.8,1.1-1.2,1.6c-0.4,0.6-0.9,1.2-1.3,1.8c0,0-0.1,0.1-0.1,0.1c-0.3,0.3-0.5,0.7-0.8,1c-0.2,0.3-0.4,0.5-0.6,0.8
		c-0.5,0.6-1,1.2-1.4,1.8c-0.5,0.6-1,1.2-1.5,1.8c-0.7,0.9-1.5,1.7-2.2,2.6c-0.3,0.3-0.5,0.6-0.8,0.9l-0.1,0.1
		c-0.6,0.7-1.2,1.4-1.9,2c-0.1,0.1-0.2,0.2-0.3,0.3c-0.6,0.7-1.3,1.3-1.9,2c-0.1,0.1-0.3,0.3-0.4,0.4c-0.7,0.7-1.4,1.4-2.1,2.1
		c-0.7,0.7-1.5,1.4-2.2,2.1c-0.1,0-0.1,0.1-0.2,0.1c-0.8,0.7-1.6,1.4-2.4,2.1c0,0,0,0-0.1,0c-0.8,0.7-1.6,1.4-2.4,2.1
		c-0.8,0.7-1.7,1.4-2.5,2.1c-0.2,0.2-0.4,0.3-0.6,0.5c-0.2,0.1-0.4,0.3-0.6,0.5c-0.3,0.2-0.5,0.4-0.8,0.6c-0.2,0.2-0.4,0.3-0.7,0.5
		c-0.1,0.1-0.1,0.1-0.2,0.2c-0.3,0.3-0.7,0.5-1,0.7c-0.1,0.1-0.1,0.1-0.2,0.2c-0.3,0.3-0.7,0.5-1,0.8c-0.4,0.3-0.7,0.5-1.1,0.8
		c0,0,0,0,0,0c-0.1,0.1-0.2,0.1-0.2,0.2c-0.3,0.2-0.6,0.5-1,0.7c-0.4,0.3-0.8,0.6-1.2,0.8c-0.9,0.6-1.9,1.3-2.8,1.9
		c-2.9,1.9-5.8,3.6-8.9,5.3c-0.7,0.4-1.3,0.7-2,1.1c-0.5,0.3-1,0.5-1.5,0.8c-0.1,0-0.2,0.1-0.3,0.1c-0.5,0.2-0.9,0.5-1.4,0.7
		c0,0,0,0,0,0c-0.1,0-0.1,0.1-0.2,0.1c-0.2,0.1-0.4,0.2-0.6,0.3c-0.4,0.2-0.9,0.4-1.3,0.6c-0.4,0.2-0.7,0.3-1.1,0.5
		c-0.7,0.3-1.4,0.6-2,0.9c-1.3,0.6-2.6,1.1-3.8,1.7c-0.5,0.2-1.1,0.4-1.6,0.7c-0.7,0.3-1.4,0.5-2.1,0.8c-0.7,0.3-1.4,0.5-2.1,0.8
		c-0.7,0.2-1.3,0.5-2,0.7c-1.2,0.4-2.5,0.9-3.7,1.3c-0.5,0.1-1,0.3-1.5,0.5c-0.9,0.3-1.8,0.6-2.8,0.8c-1,0.3-1.9,0.6-2.9,0.8
		c-0.5,0.1-1.1,0.3-1.6,0.4c-0.5,0.1-1,0.3-1.5,0.4c-0.3,0.1-0.5,0.1-0.8,0.2c-0.6,0.1-1.2,0.3-1.9,0.4c-0.6,0.1-1.2,0.3-1.8,0.4
		c-0.9,0.2-1.7,0.4-2.6,0.5c-0.4,0.1-0.8,0.1-1.2,0.2l-0.2,0c-0.8,0.1-1.5,0.3-2.3,0.4c-1,0.2-2,0.3-3,0.5c-0.8,0.1-1.7,0.3-2.5,0.4
		c-0.1,0-0.2,0-0.2,0c-0.2,0-0.3,0-0.5,0.1c-0.7,0.1-1.5,0.2-2.2,0.3c-0.7,0.1-1.4,0.2-2.1,0.2c-0.1,0-0.2,0-0.3,0
		c-0.1,0-0.2,0-0.2,0c-0.3,0-0.5,0.1-0.8,0.1c-0.3,0-0.6,0-0.8,0.1c-0.2,0-0.3,0-0.5,0c-0.1,0-0.2,0-0.3,0c-0.2,0-0.5,0.1-0.7,0.1
		c-0.2,0-0.5,0-0.7,0.1c-0.6,0-1.3,0.1-1.9,0.1c-0.2,0-0.4,0-0.6,0c-0.5,0-1.1,0.1-1.6,0.1c-1.7,0.1-3.5,0.1-5.3,0.2
		c-1.7,0-3.4,0-5.1,0c-0.2,0-0.3,0-0.5,0c-0.9,0-1.8,0-2.7-0.1c-0.4,0-0.9,0-1.3-0.1c-0.5,0-1-0.1-1.5-0.1h-0.1
		c-0.6,0-1.2-0.1-1.8-0.1c-0.2,0-0.4,0-0.6,0c-0.6,0-1.1-0.1-1.7-0.1c-0.9-0.1-1.8-0.2-2.7-0.3c-0.8-0.1-1.7-0.2-2.5-0.3
		c-0.1,0-0.1,0-0.2,0c-0.3,0-0.7-0.1-1-0.1c-0.3-0.1-0.7-0.1-1-0.1c-10.3-1.4-20.4-3.8-30.1-7.2C136.4,306.2,135.7,306,135.1,305.8"
		/>
	
		<linearGradient id="SVGID_00000168083838335583220570000004195623328283548812_" gradientUnits="userSpaceOnUse" x1="-127.0845" y1="121.9449" x2="-168.9584" y2="25.5552" gradientTransform="matrix(1.4158 0 0 1 378.2519 19.2608)">
		<stop  offset="0" style="stop-color:#F3EA1A"/>
		<stop  offset="5.825394e-02" style="stop-color:#F5DC19"/>
		<stop  offset="0.1453" style="stop-color:#F7CE17"/>
		<stop  offset="0.2475" style="stop-color:#F8C317"/>
		<stop  offset="0.3728" style="stop-color:#FABB16"/>
		<stop  offset="0.546" style="stop-color:#FBB716"/>
		<stop  offset="1" style="stop-color:#FBB615"/>
	</linearGradient>
	<path fill="url(#SVGID_00000168083838335583220570000004195623328283548812_)" d="M199.4,193.8h-25c-2.1,0-3.7-1.7-3.7-3.7V55
		c0-2.1,1.7-3.7,3.7-3.7h25c2.1,0,3.7,1.7,3.7,3.7v135.1C203.1,192.2,201.4,193.8,199.4,193.8z"/>
</g>
</svg>
